<svg width="20" height="20" viewBox="0 0 20 20" fill="none" xmlns="http://www.w3.org/2000/svg">
<path d="M2.30864 15.2084C2.40864 16.9251 3.33364 18.3334 5.63364 18.3334H14.367C16.667 18.3334 17.5836 16.9251 17.692 15.2084L18.1253 8.32508C18.242 6.52508 16.8086 5.00008 15.0003 5.00008C14.492 5.00008 14.0253 4.70841 13.792 4.25841L13.192 3.05008C12.8086 2.29175 11.8086 1.66675 10.9586 1.66675H9.0503C8.19197 1.66675 7.19197 2.29175 6.80864 3.05008L6.20864 4.25841C5.9753 4.70841 5.50864 5.00008 5.0003 5.00008C3.19197 5.00008 1.75864 6.52508 1.8753 8.32508L2.09197 11.7167" stroke="#1E293B" stroke-linecap="round" stroke-linejoin="round"/>
<path d="M8.75 6.66675H11.25" stroke="#1E293B" stroke-linecap="round" stroke-linejoin="round"/>
<path d="M10.0003 14.9999C11.492 14.9999 12.7087 13.7833 12.7087 12.2916C12.7087 10.7999 11.492 9.58325 10.0003 9.58325C8.50866 9.58325 7.29199 10.7999 7.29199 12.2916C7.29199 13.7833 8.50866 14.9999 10.0003 14.9999Z" stroke="#1E293B" stroke-linecap="round" stroke-linejoin="round"/>
</svg>
