<svg width="24" height="24" viewBox="0 0 24 24" fill="none" xmlns="http://www.w3.org/2000/svg">
<path d="M12.0005 22.0005C17.5233 22.0005 22.0005 17.5233 22.0005 12.0005C22.0005 6.47764 17.5233 2.00049 12.0005 2.00049C6.47764 2.00049 2.00049 6.47764 2.00049 12.0005C2.00049 17.5233 6.47764 22.0005 12.0005 22.0005Z" stroke="#1E293B" stroke-width="1.5" stroke-linecap="round" stroke-linejoin="round"/>
<path d="M12.1197 12.781C12.0497 12.771 11.9597 12.771 11.8797 12.781C10.1197 12.721 8.71973 11.281 8.71973 9.51096C8.71973 7.70096 10.1797 6.23096 11.9997 6.23096C13.8097 6.23096 15.2797 7.70096 15.2797 9.51096C15.2697 11.281 13.8797 12.721 12.1197 12.781Z" stroke="#1E293B" stroke-width="1.5" stroke-linecap="round" stroke-linejoin="round"/>
<path d="M18.7403 19.3796C18.6403 18.4396 18.0403 17.5196 16.9703 16.7996C14.2503 14.9796 9.77025 14.9796 7.03025 16.7996C5.96025 17.5196 5.36025 18.4396 5.26025 19.3796" stroke="#1E293B" stroke-width="1.5" stroke-linecap="round" stroke-linejoin="round"/>
</svg>
