<svg width="24" height="24" viewBox="0 0 24 24" fill="none" xmlns="http://www.w3.org/2000/svg">
<path d="M12.0005 22C17.5233 22 22.0005 17.5228 22.0005 12C22.0005 6.47715 17.5233 2 12.0005 2C6.47764 2 2.00049 6.47715 2.00049 12C2.00049 17.5228 6.47764 22 12.0005 22Z" fill="#1E293B" stroke="#1E293B" stroke-width="1.5" stroke-linecap="round" stroke-linejoin="round"/>
<path d="M12.1197 12.7805C12.0497 12.7705 11.9597 12.7705 11.8797 12.7805C10.1197 12.7205 8.71973 11.2805 8.71973 9.51047C8.71973 7.70047 10.1797 6.23047 11.9997 6.23047C13.8097 6.23047 15.2797 7.70047 15.2797 9.51047C15.2697 11.2805 13.8797 12.7205 12.1197 12.7805Z" stroke="white" stroke-width="1.5" stroke-linecap="round" stroke-linejoin="round"/>
<path d="M18.7403 19.3796C18.6403 18.4396 18.0403 17.5196 16.9703 16.7996C14.2503 14.9796 9.77025 14.9796 7.03025 16.7996C5.96025 17.5196 5.36025 18.4396 5.26025 19.3796" stroke="white" stroke-width="1.5" stroke-linecap="round" stroke-linejoin="round"/>
</svg>
