<svg width="24" height="24" viewBox="0 0 24 24" fill="none" xmlns="http://www.w3.org/2000/svg">
<path d="M11.1 3C7.45 3.007 5.54 3.096 4.318 4.318C3 5.636 3 7.757 3 12C3 16.243 3 18.364 4.318 19.682C5.636 21 7.758 21 12 21C16.242 21 18.364 21 19.683 19.682C20.903 18.461 20.993 16.549 21 12.9" stroke="black" stroke-width="1.5" stroke-linecap="round" stroke-linejoin="round"/>
<path d="M21 6.025L20 6.023C16.263 6.013 14.395 6.008 13.082 6.953C12.645 7.266 12.262 7.648 11.947 8.083C11 9.396 11 11.264 11 15M21 6.025C21.0022 5.85141 20.9398 5.68319 20.825 5.553C20.06 4.647 18.071 3 18.071 3M21 6.025C20.9908 6.18116 20.9295 6.32973 20.826 6.447C20.06 7.353 18.07 9 18.07 9" stroke="black" stroke-width="1.5" stroke-linecap="round" stroke-linejoin="round"/>
</svg>
