<svg width="215" height="110" viewBox="0 0 215 110" fill="none" xmlns="http://www.w3.org/2000/svg">
<g clip-path="url(#clip0_1_6511)">
<path d="M25.3381 90.6358C25.0708 90.5304 24.7303 91.124 24.5007 91.0184C24.2719 90.9131 24.5303 90.287 24.321 89.4702C24.2832 89.3229 24.0454 88.3947 23.6541 88.3521C22.9124 88.2714 22.272 91.4435 21.1637 91.4164C20.9205 91.4104 20.6288 91.2498 19.8726 91.2059C19.5717 91.1884 19.4083 91.2017 19.3233 91.3086C19.2027 91.4603 19.3453 91.668 19.4887 92.1815C19.7039 92.9516 19.5343 93.0253 19.7576 93.6C19.9234 94.0267 20.104 94.2102 20.0122 94.3433C19.8824 94.5316 19.437 94.2859 19.2433 94.4871C19.0456 94.6924 19.2434 95.2247 19.4501 95.5782C19.8379 96.2418 20.3693 96.4682 20.8175 96.7913C21.3045 97.1424 21.9208 97.7717 22.371 98.9864L25.9744 109.913C25.2827 107.634 23.4909 101.308 22.9203 98.8837C22.7555 98.184 22.6098 97.4578 22.9874 96.8375C23.351 96.2402 24.1558 95.8129 24.895 94.899C24.9813 94.7923 25.2177 94.4922 25.1211 94.2918C25.0412 94.1262 24.8064 94.1796 24.7295 94.0261C24.6263 93.8201 24.965 93.5568 25.2232 93.0299C25.4052 92.6584 25.4546 92.3446 25.4971 92.0748C25.51 91.9935 25.6941 90.7761 25.3381 90.6358Z" fill="#F2F2F2"/>
<path d="M16.7926 104.398C16.6634 104.498 16.8585 104.835 16.74 104.917C16.622 104.998 16.3872 104.691 15.9232 104.558C15.8395 104.533 15.3122 104.382 15.1783 104.56C14.9244 104.898 16.3071 106.126 15.9739 106.658C15.9008 106.775 15.7372 106.871 15.4974 107.227C15.4019 107.369 15.3613 107.452 15.3896 107.524C15.4298 107.627 15.5736 107.617 15.8687 107.696C16.3113 107.813 16.2987 107.917 16.6472 107.974C16.9058 108.016 17.0486 107.981 17.0879 108.064C17.1435 108.182 16.8936 108.328 16.9371 108.481C16.9815 108.636 17.3016 108.693 17.5359 108.695C17.9757 108.697 18.241 108.503 18.5299 108.378C18.8439 108.242 19.3327 108.123 20.0628 108.254L26.5014 109.65C25.1759 109.33 21.5329 108.378 20.1705 107.957C19.7772 107.835 19.3764 107.696 19.1788 107.333C18.9886 106.984 19.0096 106.468 18.7713 105.844C18.7435 105.771 18.6634 105.569 18.5366 105.559C18.4317 105.55 18.3903 105.68 18.2923 105.673C18.1607 105.664 18.1284 105.423 17.9425 105.145C17.8114 104.949 17.6706 104.834 17.5496 104.736C17.5131 104.706 16.9647 104.265 16.7926 104.398Z" fill="#F2F2F2"/>
<path d="M19.8268 102.992L19.2103 102.359L19.2052 102.279C19.1815 101.91 19.0814 101.608 18.9074 101.382C18.8798 101.346 18.8503 101.312 18.8203 101.277C18.7012 101.138 18.5532 100.964 18.4847 100.683C18.4468 100.526 18.3852 100.142 18.6344 100.004C18.701 99.966 18.7678 99.9586 18.8272 99.9642C18.826 99.9523 18.825 99.9403 18.8238 99.9274C18.8114 99.7687 18.8314 99.6813 18.8506 99.5972C18.8653 99.5325 18.8806 99.4658 18.8832 99.3336C18.8843 99.2756 18.8824 99.2269 18.8809 99.1859C18.8765 99.0617 18.8778 98.9086 19.0121 98.8083C19.1593 98.706 19.3245 98.7656 19.4338 98.805C19.629 98.8752 19.746 98.9439 19.8237 98.9895C19.852 99.0063 19.884 99.0249 19.8961 99.029C19.9938 99.0608 20.3173 98.7128 20.4399 98.5825C20.7142 98.2888 20.9516 98.0346 21.2173 98.1458C21.4074 98.2252 21.4927 98.4576 21.477 98.8555C21.4721 98.9794 21.449 99.0884 21.424 99.1792C21.4965 99.1705 21.576 99.1815 21.6491 99.2386C21.822 99.3739 21.8076 99.6535 21.6068 100.07C21.5571 100.174 21.4898 100.313 21.3564 100.458C21.2934 100.526 21.2305 100.579 21.1759 100.623C21.1997 100.656 21.2191 100.697 21.2273 100.748C21.2514 100.897 21.1703 101.04 20.9798 101.167C20.7724 101.309 20.579 101.397 20.4085 101.475C20.2597 101.543 20.1319 101.602 20.0508 101.674C19.9021 101.808 19.8779 102.028 19.8617 102.301L19.8268 102.992Z" fill="#F2F2F2"/>
<path d="M16.9836 98.5908L16.5239 99.3436L16.4474 99.3688C16.0937 99.4852 15.8254 99.6579 15.6496 99.8823C15.6217 99.918 15.5956 99.9551 15.5689 99.9928C15.4635 100.143 15.3325 100.329 15.0756 100.466C14.9321 100.542 14.5737 100.699 14.3764 100.494C14.3227 100.44 14.2986 100.378 14.289 100.319C14.2777 100.323 14.2662 100.327 14.2539 100.332C14.1026 100.384 14.0124 100.387 13.9256 100.39C13.8589 100.392 13.79 100.394 13.6607 100.425C13.6039 100.439 13.5569 100.453 13.5174 100.465C13.3976 100.501 13.2481 100.538 13.1163 100.435C12.9794 100.319 12.9956 100.145 13.0062 100.03C13.0251 99.825 13.0623 99.6951 13.087 99.6089C13.0961 99.5775 13.1062 99.542 13.1071 99.5294C13.1133 99.4274 12.6923 99.2048 12.5344 99.1201C12.1787 98.931 11.871 98.7674 11.9119 98.484C11.9409 98.2811 12.1456 98.1402 12.5372 98.0544C12.6591 98.0277 12.771 98.0222 12.8658 98.0233C12.8389 97.9558 12.8295 97.8766 12.8666 97.7918C12.9545 97.5914 13.2304 97.5344 13.6871 97.6216C13.8008 97.643 13.9533 97.6724 14.1279 97.7639C14.2101 97.8071 14.2778 97.8542 14.335 97.8953C14.3612 97.8641 14.3957 97.8351 14.4432 97.8144C14.5828 97.7532 14.742 97.7951 14.9139 97.9459C15.1052 98.109 15.2401 98.2725 15.3593 98.4166C15.4634 98.5422 15.5534 98.65 15.6434 98.7099C15.8119 98.8186 16.0321 98.7861 16.3026 98.7324L16.9836 98.5908Z" fill="#F2F2F2"/>
<path d="M15.0348 96.8284L14.4183 96.1959L14.4132 96.116C14.3895 95.7466 14.2894 95.445 14.1154 95.2192C14.0878 95.1833 14.0583 95.1488 14.0283 95.1137C13.9092 94.9744 13.7612 94.8013 13.6927 94.5197C13.6549 94.3625 13.5933 93.9784 13.8424 93.8407C13.909 93.803 13.9758 93.7955 14.0352 93.8011C14.034 93.7892 14.033 93.7772 14.0318 93.7643C14.0194 93.6056 14.0394 93.5183 14.0586 93.4341C14.0733 93.3694 14.0886 93.3027 14.0912 93.1705C14.0923 93.1126 14.0904 93.0638 14.0889 93.0228C14.0845 92.8986 14.0858 92.7455 14.2201 92.6452C14.3673 92.5429 14.5325 92.6025 14.6418 92.6419C14.837 92.7121 14.9541 92.7809 15.0317 92.8265C15.06 92.8432 15.092 92.8619 15.1041 92.866C15.2018 92.8977 15.5254 92.5497 15.6479 92.4194C15.9222 92.1257 16.1596 91.8716 16.4253 91.9827C16.6154 92.0621 16.7007 92.2945 16.685 92.6925C16.6801 92.8164 16.657 92.9253 16.632 93.0161C16.7045 93.0074 16.784 93.0185 16.8571 93.0755C17.0301 93.2108 17.0156 93.4904 16.8148 93.9071C16.7651 94.0108 16.6978 94.15 16.5644 94.2945C16.5015 94.3625 16.4385 94.4157 16.3839 94.4602C16.4077 94.4932 16.4272 94.5338 16.4353 94.5847C16.4594 94.7343 16.3783 94.8766 16.1878 95.0035C15.9805 95.146 15.787 95.2341 15.6165 95.312C15.4677 95.3802 15.3399 95.4394 15.2588 95.5106C15.1101 95.6449 15.0859 95.8647 15.0697 96.1382L15.0348 96.8284Z" fill="#F2F2F2"/>
<path d="M26.1992 109.723L25.9823 109.744L25.8271 109.894C25.8122 109.88 25.7749 109.851 25.717 109.805C25.4 109.554 24.435 108.79 23.0873 107.455C22.1466 106.523 21.2421 105.517 20.3982 104.464C19.5531 103.41 18.9761 102.563 18.5123 101.883C18.1625 101.37 17.8375 100.875 17.5211 100.393C16.6756 99.105 15.8767 97.8886 14.8219 96.6726C14.5866 96.401 14.0964 95.8359 13.262 95.4746C12.778 95.2651 12.2499 95.1547 11.6924 95.1468L11.6987 94.7139C12.3144 94.723 12.899 94.8457 13.4364 95.0783C14.3616 95.4788 14.8956 96.0945 15.1522 96.3904C16.2257 97.6279 17.0321 98.8561 17.8857 100.157C18.2011 100.637 18.5245 101.13 18.8729 101.641C19.3325 102.314 19.9045 103.154 20.7388 104.194C21.5724 105.235 22.466 106.229 23.3947 107.149C24.7254 108.467 25.6761 109.22 25.9885 109.467C26.1551 109.599 26.1901 109.627 26.1992 109.723Z" fill="#F2F2F2"/>
<path d="M11.483 96.1753C11.4688 96.1861 11.4543 96.1968 11.439 96.2069C11.1332 96.4163 10.7257 96.4503 10.2277 96.3081C9.99385 96.241 9.79862 96.1094 9.40925 95.8471C9.34913 95.8067 9.04791 95.599 8.70071 95.2617C8.47375 95.0413 8.3978 94.9347 8.37614 94.8055C8.35181 94.6619 8.38523 94.5231 8.4477 94.3989C8.41785 94.3695 8.39512 94.333 8.38265 94.2876C8.33039 94.0998 8.50113 93.9987 8.59265 93.9429C8.63955 93.9154 8.69837 93.8815 8.75359 93.8344C8.84076 93.7606 8.86861 93.6965 8.91113 93.5998C8.95175 93.5073 9.00226 93.3922 9.11183 93.266C9.327 93.0161 9.59809 92.9234 9.6874 92.8928C10.1561 92.7302 10.5638 92.8771 11.0357 93.0472C11.1301 93.0816 11.4649 93.2133 11.8205 93.4733C12.077 93.6608 12.1504 93.7753 12.1914 93.8709C12.2761 94.0669 12.2488 94.2374 12.1551 94.6391C12.0577 95.0591 12.0087 95.2697 11.9454 95.4234C11.7978 95.7806 11.7051 96.0049 11.483 96.1753Z" fill="#F2F2F2"/>
<path d="M25.7695 71.0922L30.8096 79.3784L60.1814 77.6521L52.3605 67.6396L25.7695 71.0922Z" fill="#F2F2F2"/>
<path d="M34.5458 109.848C34.3748 109.848 34.2257 109.722 34.2019 109.549L25.4251 45.8798C25.3991 45.6908 25.5321 45.5166 25.7223 45.4909C25.9124 45.4635 26.0877 45.5971 26.1139 45.786L34.8906 109.455C34.9167 109.644 34.7836 109.819 34.5934 109.844C34.5774 109.847 34.5615 109.848 34.5458 109.848Z" fill="#F2F2F2"/>
<path d="M25.7695 109.929C25.5775 109.929 25.4219 109.774 25.4219 109.583V45.8453C25.4219 45.6546 25.5775 45.5 25.7695 45.5C25.9614 45.5 26.1171 45.6546 26.1171 45.8453V109.583C26.1171 109.774 25.9614 109.929 25.7695 109.929Z" fill="#F2F2F2"/>
<path d="M69.8268 109.675C69.6791 109.675 69.542 109.581 69.4953 109.433L48.7266 43.865C48.6689 43.6831 48.7707 43.4892 48.9538 43.4319C49.1369 43.3749 49.3321 43.4759 49.3897 43.6576L70.1584 109.226C70.2161 109.408 70.1143 109.602 69.9312 109.659C69.8965 109.67 69.8613 109.675 69.8268 109.675Z" fill="#F2F2F2"/>
<path d="M63.4831 109.755C63.3278 109.755 63.1865 109.652 63.1464 109.495L48.7212 51.6267C48.674 51.4419 48.7864 51.254 48.9724 51.2069C49.159 51.1602 49.3477 51.2717 49.395 51.4564L63.8202 109.325C63.8675 109.51 63.755 109.698 63.569 109.745C63.5403 109.752 63.5114 109.755 63.4831 109.755Z" fill="#F2F2F2"/>
<path d="M25.7695 46.8608L49.8404 46.4932L54.2723 71.6106H26.1171L25.7695 46.8608Z" fill="#F2F2F2"/>
<path d="M215 109.578H0V110H215V109.578Z" fill="#E6E6E6"/>
<path d="M44.0828 19.4159C44.8121 19.823 45.9892 18.2128 46.2559 19.0004C46.5227 19.788 45.8766 22.9659 45.5433 23.728C45.3776 24.1069 45.1434 24.4534 44.9809 24.8335C44.8183 25.2137 44.7311 25.6508 44.8748 26.0384C45.1249 26.7129 45.9502 26.9873 46.3593 27.5801C46.8359 28.2706 46.6434 29.2006 46.4206 30.008C46.2286 30.7039 46.024 31.4061 45.6543 32.0273C45.2847 32.6485 44.7274 33.1894 44.031 33.3949C43.1444 33.6566 42.1967 33.3456 41.342 32.9945C40.5202 32.657 39.7072 32.2743 39.0083 31.7282C38.3094 31.1821 37.7262 30.4572 37.4819 29.608C37.1754 28.5426 37.4314 27.3767 37.9621 26.4022C38.4927 25.4276 39.2777 24.6157 40.0831 23.8491C41.4396 22.5581 42.8832 21.3574 44.4009 20.2576" fill="#2F2E41"/>
<path d="M48.6095 57.6602L68.0716 64.9826C68.0716 64.9826 69.6935 66.5936 69.9883 69.3761C70.2832 72.1586 75.7385 87.9751 75.7385 87.9751L71.0204 89.7325C71.0204 89.7325 63.0586 77.5772 63.501 72.598C63.501 72.598 62.6163 70.2502 62.174 70.1793C61.7317 70.1083 55.0968 66.74 50.8211 67.1794C46.5453 67.6187 35.3398 68.9367 35.0449 63.811C34.75 58.6853 37.3361 58.6853 37.3361 58.6853L48.6095 57.6602Z" fill="#2F2E41"/>
<path d="M74.7065 86.6577C74.7065 86.6577 76.0335 86.2183 76.9181 87.097C77.8027 87.9757 77.8027 88.708 77.8027 88.708C77.8027 88.708 84.7325 88.5615 85.0273 89.4402C85.3222 90.3189 84.2901 93.8337 81.7836 93.9801C79.2771 94.1266 70.7256 95.884 70.7256 94.273C70.7256 92.6621 70.873 89.0009 71.4628 89.0009C72.0526 89.0009 74.7065 86.6577 74.7065 86.6577Z" fill="#2F2E41"/>
<path d="M50.2904 62.3182L64.4752 77.4445C64.4752 77.4445 65.2111 79.6023 64.2349 82.2268C63.2587 84.8513 61.0979 101.432 61.0979 101.432L56.0842 100.932C56.0842 100.932 54.3652 86.5316 56.9819 82.2618C56.9819 82.2618 57.2355 79.7676 56.8705 79.5095C56.5056 79.2513 52.0586 73.3128 48.0291 71.8259C43.9996 70.3389 33.3652 66.5916 35.3862 61.8662C37.4071 57.1408 39.7257 58.2783 39.7257 58.2783L50.2904 62.3182Z" fill="#2F2E41"/>
<path d="M60.7602 99.7959C60.7602 99.7959 62.1458 99.9857 62.5472 101.163C62.9486 102.34 62.6221 102.996 62.6221 102.996C62.6221 102.996 68.9006 105.913 68.7732 106.831C68.6458 107.748 66.1533 110.446 63.8407 109.474C61.5281 108.503 53.0774 106.317 53.7956 104.873C54.5139 103.428 56.2784 100.211 56.8072 100.47C57.336 100.729 60.7602 99.7959 60.7602 99.7959Z" fill="#2F2E41"/>
<path d="M37.3304 31.2266L42.0485 34.302L47.3563 42.3567C47.3563 42.3567 48.5359 50.8508 48.0935 51.2901C47.6512 51.7295 47.7986 52.1688 47.7986 53.0475C47.7986 53.9262 48.8818 54.0196 48.1928 54.7784C47.5038 55.5371 46.9256 55.6951 47.9519 55.9822C48.9782 56.2694 50.1705 55.9892 49.5743 56.8615C48.9782 57.7339 49.4205 58.0268 49.1256 58.3197C48.8307 58.6126 36.8942 71.1343 34.6826 66.3015C32.471 61.4687 32.3174 42.9425 32.3174 42.9425L33.9106 36.9074L37.3304 31.2266Z" fill="#CCCCCC"/>
<path d="M22.7932 65.729C22.2911 67.4152 22.7601 69.0394 23.8406 69.3565C24.921 69.6737 26.2036 68.5639 26.7055 66.877C26.9154 66.2059 26.9603 65.4946 26.8367 64.8027L28.873 57.6313L25.4645 56.7539L23.819 63.9167C23.3362 64.4308 22.9845 65.0522 22.7932 65.729Z" fill="#FFB6B6"/>
<path d="M42.2056 41.4105C42.2056 41.4105 36.7103 37.2435 34.6184 39.8714C32.5265 42.4993 24.8635 54.1654 24.8635 54.1654L24.3555 58.6113L28.7015 59.5639L35.726 49.2828L42.2056 41.4105Z" fill="#CCCCCC"/>
<path d="M69.8328 25.2176C71.093 23.9826 71.4729 22.3357 70.6815 21.5392C69.8901 20.7427 68.2272 21.0984 66.9667 22.334C66.4564 22.8207 66.0708 23.4217 65.8423 24.0868L60.5693 29.3866L63.1259 31.7914L68.0527 26.3114C68.7255 26.0933 69.3359 25.7182 69.8328 25.2176Z" fill="#FFB6B6"/>
<path d="M41.0034 37.1837C41.0034 37.1837 43.7857 43.4701 46.8959 42.1743C50.0061 40.8785 62.3924 34.3461 62.3924 34.3461L65.0009 30.6982L61.6602 27.7773L50.5071 33.404L41.0034 37.1837Z" fill="#CCCCCC"/>
<path d="M42.2611 29.9765C45.1837 29.9765 47.553 27.6231 47.553 24.7202C47.553 21.8172 45.1837 19.4639 42.2611 19.4639C39.3385 19.4639 36.9692 21.8172 36.9692 24.7202C36.9692 27.6231 39.3385 29.9765 42.2611 29.9765Z" fill="#FFB6B6"/>
<path d="M36.2954 32.9527C37.5305 34.7027 38.1622 36.865 38.0619 38.9999C39.4623 38.3261 40.4075 36.9025 40.7292 35.3903C41.0509 33.8781 40.8054 32.2903 40.2885 30.8325C40.2833 30.8179 40.2781 30.8033 40.2729 30.7888C39.488 28.6006 40.2173 26.155 42.1131 24.7948C43.3918 23.8773 44.5008 22.7262 45.352 21.4068C45.8325 20.6619 46.2409 19.7275 45.882 18.9178C45.5512 18.1718 44.6966 17.8231 43.9103 17.5898C42.1146 17.057 40.2067 16.7539 38.3636 17.091C36.5205 17.4281 34.7463 18.4809 33.8752 20.129C33.0042 21.7772 33.2323 24.0265 34.6462 25.2484C34.2003 25.3916 33.8848 25.861 33.9226 26.325C33.9605 26.789 34.348 27.2019 34.8114 27.2718C34.5091 27.2612 34.3306 27.6566 34.4384 27.9374C34.5462 28.2181 34.8242 28.3924 35.0894 28.5369C35.4672 28.7428 35.8859 28.958 35.8876 29.4969C35.8882 29.7131 35.8106 29.9228 35.6839 30.0984C35.3767 30.5241 34.8807 30.7158 34.4033 30.8957C35.4131 31.1911 36.2183 32.0876 36.3991 33.1177" fill="#2F2E41"/>
<path d="M80.2228 31.5232C88.9858 31.5232 96.0896 24.4671 96.0896 15.763C96.0896 7.05897 88.9858 0.00292969 80.2228 0.00292969C71.4598 0.00292969 64.356 7.05897 64.356 15.763C64.356 24.4671 71.4598 31.5232 80.2228 31.5232Z" fill="#1E293B"/>
<path d="M79.4002 15.8382L77.8853 24.7627L79.46 25.0264L80.975 16.102L79.4002 15.8382Z" fill="white"/>
<path d="M85.2734 21.3392L79.8596 17.9018L73.6104 19.3859L81.7727 6.63184L85.2734 21.3392Z" fill="white"/>
<path d="M180.266 92.6704C180.5 92.5781 180.798 93.0978 180.999 93.0053C181.199 92.9131 180.973 92.3651 181.156 91.65C181.189 91.5211 181.398 90.7085 181.74 90.6712C182.389 90.6006 182.95 93.3775 183.92 93.3537C184.133 93.3485 184.388 93.2079 185.05 93.1695C185.314 93.1542 185.457 93.1658 185.531 93.2594C185.637 93.3922 185.512 93.574 185.386 94.0235C185.198 94.6977 185.347 94.7622 185.151 95.2653C185.006 95.6388 184.848 95.7994 184.928 95.9159C185.042 96.0808 185.432 95.8657 185.601 96.0418C185.774 96.2216 185.601 96.6875 185.42 96.997C185.081 97.5779 184.616 97.7761 184.223 98.0589C183.797 98.3663 183.258 98.9172 182.863 99.9805L179.709 109.545C180.314 107.551 181.883 102.013 182.383 99.8906C182.527 99.2781 182.654 98.6424 182.324 98.0994C182.005 97.5765 181.301 97.2024 180.654 96.4024C180.578 96.309 180.371 96.0463 180.456 95.8709C180.526 95.7259 180.731 95.7727 180.799 95.6383C180.889 95.458 180.593 95.2275 180.367 94.7662C180.207 94.441 180.164 94.1663 180.127 93.9301C180.116 93.8589 179.954 92.7932 180.266 92.6704Z" fill="#F2F2F2"/>
<path d="M187.747 104.718C187.86 104.806 187.689 105.101 187.793 105.172C187.896 105.243 188.102 104.975 188.508 104.858C188.581 104.837 189.043 104.704 189.16 104.86C189.382 105.156 188.172 106.231 188.463 106.697C188.527 106.799 188.671 106.883 188.881 107.195C188.964 107.319 189 107.392 188.975 107.455C188.94 107.545 188.814 107.536 188.555 107.605C188.168 107.708 188.179 107.799 187.874 107.848C187.648 107.885 187.523 107.855 187.488 107.927C187.439 108.03 187.658 108.158 187.62 108.292C187.581 108.428 187.301 108.478 187.096 108.479C186.711 108.481 186.479 108.312 186.226 108.202C185.951 108.083 185.523 107.979 184.884 108.094L179.248 109.316C180.408 109.035 183.597 108.202 184.79 107.833C185.134 107.727 185.485 107.606 185.658 107.288C185.824 106.982 185.806 106.53 186.014 105.984C186.039 105.92 186.109 105.744 186.22 105.734C186.312 105.726 186.348 105.84 186.434 105.834C186.549 105.826 186.577 105.615 186.74 105.372C186.855 105.2 186.978 105.1 187.084 105.014C187.116 104.988 187.596 104.602 187.747 104.718Z" fill="#F2F2F2"/>
<path d="M185.09 103.486L185.63 102.932L185.634 102.862C185.655 102.539 185.743 102.275 185.895 102.077C185.919 102.046 185.945 102.016 185.971 101.985C186.076 101.863 186.205 101.711 186.265 101.465C186.298 101.327 186.352 100.991 186.134 100.871C186.076 100.837 186.017 100.831 185.965 100.836C185.966 100.825 185.967 100.815 185.968 100.804C185.979 100.665 185.962 100.588 185.945 100.515C185.932 100.458 185.919 100.4 185.916 100.284C185.915 100.233 185.917 100.19 185.918 100.155C185.922 100.046 185.921 99.9118 185.803 99.824C185.675 99.7344 185.53 99.7866 185.434 99.8211C185.263 99.8826 185.161 99.9427 185.093 99.9827C185.068 99.9973 185.04 100.014 185.03 100.017C184.944 100.045 184.661 99.7404 184.554 99.6264C184.313 99.3692 184.106 99.1467 183.873 99.244C183.707 99.3135 183.632 99.517 183.646 99.8653C183.65 99.9738 183.67 100.069 183.692 100.149C183.629 100.141 183.559 100.151 183.495 100.201C183.344 100.319 183.356 100.564 183.532 100.929C183.576 101.019 183.634 101.141 183.751 101.268C183.806 101.327 183.861 101.374 183.909 101.413C183.888 101.442 183.871 101.477 183.864 101.522C183.843 101.653 183.914 101.777 184.081 101.888C184.262 102.013 184.432 102.09 184.581 102.159C184.711 102.218 184.823 102.27 184.894 102.332C185.024 102.45 185.046 102.642 185.06 102.882L185.09 103.486Z" fill="#F2F2F2"/>
<path d="M187.58 99.6341L187.982 100.293L188.049 100.315C188.359 100.417 188.593 100.568 188.747 100.765C188.772 100.796 188.795 100.828 188.818 100.861C188.91 100.992 189.025 101.155 189.25 101.275C189.375 101.342 189.689 101.479 189.862 101.3C189.909 101.253 189.93 101.198 189.938 101.147C189.948 101.151 189.958 101.154 189.969 101.158C190.102 101.204 190.181 101.206 190.257 101.209C190.315 101.211 190.375 101.213 190.488 101.24C190.538 101.252 190.579 101.264 190.614 101.275C190.719 101.306 190.85 101.339 190.965 101.248C191.085 101.147 191.071 100.995 191.061 100.894C191.045 100.714 191.012 100.601 190.991 100.525C190.983 100.498 190.974 100.467 190.973 100.456C190.968 100.366 191.336 100.172 191.474 100.097C191.786 99.9319 192.055 99.7886 192.019 99.5405C191.994 99.363 191.815 99.2396 191.472 99.1645C191.365 99.1411 191.267 99.1363 191.184 99.1372C191.208 99.0782 191.216 99.0088 191.184 98.9346C191.107 98.7592 190.865 98.7093 190.465 98.7856C190.366 98.8044 190.232 98.8301 190.079 98.9102C190.007 98.948 189.948 98.9892 189.898 99.0252C189.875 98.9979 189.845 98.9725 189.803 98.9544C189.681 98.9008 189.542 98.9375 189.391 99.0695C189.224 99.2123 189.106 99.3554 189.002 99.4815C188.91 99.5915 188.832 99.6859 188.753 99.7383C188.605 99.8335 188.413 99.805 188.176 99.758L187.58 99.6341Z" fill="#F2F2F2"/>
<path d="M189.285 98.0915L189.825 97.5377L189.829 97.4678C189.85 97.1445 189.938 96.8804 190.09 96.6828C190.114 96.6513 190.14 96.6211 190.166 96.5904C190.27 96.4685 190.4 96.3169 190.46 96.0704C190.493 95.9328 190.547 95.5966 190.329 95.476C190.271 95.443 190.212 95.4364 190.16 95.4414C190.161 95.4309 190.162 95.4204 190.163 95.4091C190.174 95.2702 190.156 95.1937 190.14 95.1201C190.127 95.0635 190.113 95.0051 190.111 94.8893C190.11 94.8386 190.112 94.7959 190.113 94.76C190.117 94.6513 190.116 94.5172 189.998 94.4294C189.869 94.3399 189.725 94.3921 189.629 94.4266C189.458 94.4881 189.356 94.5482 189.288 94.5881C189.263 94.6027 189.235 94.6191 189.224 94.6227C189.139 94.6505 188.856 94.3459 188.748 94.2318C188.508 93.9747 188.3 93.7522 188.068 93.8495C187.901 93.919 187.827 94.1224 187.84 94.4708C187.845 94.5793 187.865 94.6747 187.887 94.7541C187.823 94.7465 187.754 94.7562 187.69 94.8062C187.538 94.9246 187.551 95.1694 187.727 95.5341C187.77 95.6249 187.829 95.7467 187.946 95.8733C188.001 95.9328 188.056 95.9793 188.104 96.0183C188.083 96.0472 188.066 96.0827 188.059 96.1273C188.038 96.2582 188.109 96.3828 188.276 96.4939C188.457 96.6186 188.627 96.6958 188.776 96.764C188.906 96.8237 189.018 96.8755 189.089 96.9378C189.219 97.0554 189.24 97.2478 189.255 97.4873L189.285 98.0915Z" fill="#F2F2F2"/>
<path d="M179.512 109.379L179.702 109.397L179.838 109.529C179.851 109.517 179.884 109.491 179.934 109.451C180.212 109.231 181.057 108.563 182.236 107.394C183.06 106.578 183.852 105.697 184.59 104.776C185.33 103.853 185.835 103.112 186.241 102.516C186.548 102.067 186.832 101.634 187.109 101.212C187.849 100.084 188.548 99.0194 189.472 97.9549C189.678 97.7171 190.107 97.2225 190.837 96.9062C191.261 96.7228 191.723 96.6261 192.211 96.6192L192.206 96.2402C191.667 96.2482 191.155 96.3556 190.685 96.5592C189.875 96.9099 189.407 97.4489 189.183 97.7078C188.243 98.7911 187.537 99.8664 186.79 101.005C186.514 101.425 186.231 101.857 185.926 102.304C185.523 102.894 185.023 103.628 184.292 104.54C183.562 105.45 182.78 106.32 181.967 107.126C180.802 108.28 179.97 108.939 179.697 109.155C179.551 109.271 179.52 109.295 179.512 109.379Z" fill="#F2F2F2"/>
<path d="M192.395 97.5202C192.407 97.5297 192.42 97.539 192.433 97.5479C192.701 97.7312 193.058 97.761 193.493 97.6365C193.698 97.5777 193.869 97.4625 194.21 97.2329C194.263 97.1976 194.526 97.0158 194.83 96.7204C195.029 96.5275 195.095 96.4341 195.114 96.3211C195.136 96.1954 195.106 96.0739 195.052 95.9651C195.078 95.9394 195.098 95.9075 195.109 95.8677C195.154 95.7033 195.005 95.6148 194.925 95.566C194.884 95.5419 194.832 95.5122 194.784 95.471C194.708 95.4063 194.683 95.3503 194.646 95.2656C194.611 95.1846 194.566 95.0839 194.47 94.9734C194.282 94.7546 194.045 94.6735 193.967 94.6467C193.556 94.5044 193.199 94.6329 192.786 94.7819C192.704 94.812 192.41 94.9273 192.099 95.1549C191.875 95.319 191.81 95.4193 191.774 95.5029C191.7 95.6745 191.724 95.8237 191.806 96.1754C191.892 96.5431 191.934 96.7275 191.99 96.862C192.119 97.1747 192.2 97.371 192.395 97.5202Z" fill="#F2F2F2"/>
<path d="M130.486 107.456L127.129 106.684L128.529 93.4541L133.484 94.5936L130.486 107.456Z" fill="#A0616A"/>
<path d="M119.001 104.736C118.856 104.887 118.669 105.439 118.622 105.642C118.476 106.267 118.868 106.891 119.497 107.036L129.895 109.426C130.324 109.525 130.753 109.259 130.852 108.833L130.952 108.403C130.952 108.403 131.768 107.229 131.08 105.393C131.08 105.393 129.473 106.337 127.962 103.932L127.625 102.755L122.716 104.839L120.323 104.589C119.8 104.534 119.365 104.358 119.001 104.736Z" fill="#2F2E41"/>
<path d="M165.717 100.325L163.221 102.686L152.867 94.2473L156.551 90.7637L165.717 100.325Z" fill="#A0616A"/>
<path d="M157.113 108.356C157.16 108.56 157.521 109.018 157.666 109.169C158.111 109.634 158.852 109.652 159.319 109.209L167.048 101.899C167.367 101.597 167.379 101.095 167.076 100.778L166.769 100.459C166.769 100.459 166.231 99.1367 164.308 98.6973C164.308 98.6973 164.219 100.55 161.365 100.48L160.19 100.112L159.243 105.331L157.716 107.178C157.382 107.582 156.995 107.846 157.113 108.356Z" fill="#2F2E41"/>
<path d="M179.887 75.5624L175.475 82.8161L149.763 81.305L156.61 72.54L179.887 75.5624Z" fill="#F2F2F2"/>
<path d="M172.205 109.489C172.354 109.489 172.485 109.379 172.506 109.227L180.189 53.491C180.212 53.3256 180.095 53.1731 179.929 53.1506C179.762 53.1267 179.609 53.2435 179.586 53.409L171.903 109.145C171.88 109.311 171.996 109.463 172.163 109.486C172.177 109.488 172.191 109.489 172.205 109.489Z" fill="#F2F2F2"/>
<path d="M179.888 109.559C180.056 109.559 180.192 109.424 180.192 109.257V53.4604C180.192 53.2935 180.056 53.1582 179.888 53.1582C179.72 53.1582 179.583 53.2935 179.583 53.4604V109.257C179.583 109.424 179.72 109.559 179.888 109.559Z" fill="#F2F2F2"/>
<path d="M141.32 109.337C141.449 109.337 141.569 109.255 141.61 109.126L159.791 51.727C159.841 51.5678 159.752 51.3981 159.592 51.3479C159.432 51.298 159.261 51.3864 159.21 51.5455L141.029 108.944C140.979 109.103 141.068 109.273 141.228 109.323C141.259 109.333 141.289 109.337 141.32 109.337Z" fill="#F2F2F2"/>
<path d="M146.873 109.408C147.009 109.408 147.133 109.317 147.168 109.181L159.795 58.5223C159.837 58.3605 159.738 58.196 159.576 58.1548C159.412 58.1139 159.247 58.2115 159.206 58.3732L146.578 109.032C146.536 109.193 146.635 109.358 146.798 109.399C146.823 109.405 146.848 109.408 146.873 109.408Z" fill="#F2F2F2"/>
<path d="M179.887 54.3492L158.816 54.0273L154.936 76.0152H179.583L179.887 54.3492Z" fill="#F2F2F2"/>
<path d="M171.791 69.0555C171.791 69.0555 175.456 78.0844 168.679 80.1436C161.902 82.2029 152.135 85.1122 152.135 85.1122L163.364 95.9071L157.828 99.421C157.828 99.421 137.407 85.5275 137.407 82.2029C137.407 78.8783 154.142 70.2645 154.142 70.2645L163.364 66.9922L171.791 69.0555Z" fill="#2F2E41"/>
<path d="M150.459 66.9922C150.459 66.9922 131.646 68.3643 130.228 71.9967C128.811 75.6292 125.981 94.4079 125.981 94.4079L135.869 96.1502L138.82 80.1436L165.891 70.5748L150.459 66.9922Z" fill="#2F2E41"/>
<path d="M140.42 46.3583L145.388 40.3262L150.875 43.9006C150.875 43.9006 171.552 57.2439 172.407 69.7645C172.407 69.7645 164.088 77.713 153.412 67.7299L145.677 65.6921L140.42 46.3583Z" fill="#CCCCCC"/>
<path d="M118.358 71.4464C116.708 72.0634 115.05 71.718 114.655 70.675C114.259 69.632 115.277 68.2864 116.927 67.6694C117.649 67.3994 118.373 67.3137 118.992 67.3903L126.016 64.8633L127.14 68.163L120.096 70.3039C119.681 70.7667 119.08 71.1764 118.358 71.4464Z" fill="#A0616A"/>
<path d="M142.079 46.8814L140.42 46.3574L135.678 60.7493L119.462 66.6579L120.497 70.6252L138.938 66.2541L146.056 59.36L142.079 46.8814Z" fill="#CCCCCC"/>
<path d="M139.049 42.0651C142.298 42.0651 144.932 39.449 144.932 36.222C144.932 32.9949 142.298 30.3789 139.049 30.3789C135.8 30.3789 133.167 32.9949 133.167 36.222C133.167 39.449 135.8 42.0651 139.049 42.0651Z" fill="#A0616A"/>
<path d="M144.875 31.8186C144.875 31.8186 143.345 26.9106 138.27 27.5661C138.27 27.5661 137.244 28.5599 136.377 28.4053C135.51 28.2506 133.886 30.8186 133.451 30.8132C133.017 30.8078 132.288 31.23 133.012 31.2391C133.735 31.2481 134.524 30.8985 133.515 31.461C132.507 32.0236 131.837 32.5185 132.557 32.8151C133.277 33.1117 133.415 32.3225 132.48 33.1736C131.546 34.0247 132.114 33.5285 132.543 33.9653C132.972 34.402 132.297 36.782 132.297 36.782C132.297 36.782 132.241 34.968 134.701 34.9988C137.162 35.0295 138.747 35.6245 139.48 34.9146C140.212 34.2048 141.288 35.3007 141.965 35.9902C142.642 36.6796 143.223 36.5431 143.223 36.5431L142.602 39.8426C142.602 39.8426 145.138 39.6637 145.299 38.3664C145.46 37.0692 144.826 35.7004 145.266 35.2745C145.705 34.8486 144.875 31.8186 144.875 31.8186Z" fill="#2F2E41"/>
<path d="M115.35 70.2813C123.021 70.2813 129.24 64.1045 129.24 56.4849C129.24 48.8654 123.021 42.6885 115.35 42.6885C107.679 42.6885 101.46 48.8654 101.46 56.4849C101.46 64.1045 107.679 70.2813 115.35 70.2813Z" fill="#1E293B"/>
<path d="M116.069 56.5504L114.691 56.7812L116.017 64.5937L117.396 64.3629L116.069 56.5504Z" fill="white"/>
<path d="M110.928 61.3661L115.667 58.3569L121.138 59.6562L113.993 48.4912L110.928 61.3661Z" fill="white"/>
<path d="M119.434 63.5992C117.671 63.6001 116.241 62.6975 116.241 61.583C116.24 60.4686 117.669 59.5644 119.432 59.5635C120.204 59.5631 120.912 59.7358 121.464 60.0237L128.935 60.1127L128.818 63.5942L121.465 63.1368C120.914 63.4253 120.206 63.5988 119.434 63.5992Z" fill="#A0616A"/>
<path d="M147.831 46.4219C151.44 50.3399 151.883 56.2012 148.904 60.6108L142.922 66.0463L123.74 64.2385L124.145 59.7785L137.702 59.0542L147.831 46.4219Z" fill="#CCCCCC"/>
</g>
<defs>
<clipPath id="clip0_1_6511">
<rect width="215" height="110" fill="white"/>
</clipPath>
</defs>
</svg>
