<svg width="190" height="190" viewBox="0 0 190 190" fill="none" xmlns="http://www.w3.org/2000/svg">
<g filter="url(#filter0_d_4040_9741)">
<path d="M91 181C141.258 181 182 140.482 182 90.5C182 40.5182 141.258 0 91 0C40.7421 0 0 40.5182 0 90.5C0 140.482 40.7421 181 91 181Z" fill="#FFD33C"/>
<path d="M52.6699 86.4797C52.6699 90.2097 55.6899 93.2397 59.4299 93.2397C63.1699 93.2397 66.1899 90.2197 66.1899 86.4797C66.1899 82.7397 63.1699 79.7197 59.4299 79.7197C55.6899 79.7197 52.6699 82.7397 52.6699 86.4797Z" fill="#1E293B"/>
<path d="M66.8211 78.6249C70.9724 74.4737 70.9724 67.7431 66.8211 63.5919C62.6698 59.4406 55.9393 59.4406 51.788 63.5919C47.6368 67.7431 47.6368 74.4737 51.788 78.6249C55.9393 82.7762 62.6698 82.7762 66.8211 78.6249Z" fill="#1E293B"/>
<path d="M130.93 86.4797C130.93 90.2097 127.91 93.2397 124.17 93.2397C120.43 93.2397 117.41 90.2197 117.41 86.4797C117.41 82.7397 120.43 79.7197 124.17 79.7197C127.91 79.7197 130.93 82.7397 130.93 86.4797Z" fill="#5D5D5D"/>
<path d="M134.644 73.5351C135.987 67.8199 132.442 62.0985 126.727 60.7559C121.012 59.4133 115.29 62.958 113.948 68.6732C112.605 74.3884 116.15 80.1099 121.865 81.4525C127.58 82.7951 133.302 79.2504 134.644 73.5351Z" fill="#5D5D5D"/>
<path d="M81.0844 65.8908C86.212 60.7632 86.212 52.4497 81.0844 47.3221C75.9568 42.1945 67.6433 42.1945 62.5158 47.3221C57.3882 52.4497 57.3882 60.7632 62.5158 65.8908C67.6433 71.0183 75.9568 71.0183 81.0844 65.8908Z" fill="#1E293B"/>
<path d="M102.832 60.6388C107.96 55.5112 107.96 47.1978 102.832 42.0702C97.7044 36.9426 89.3909 36.9426 84.2633 42.0702C79.1357 47.1978 79.1357 55.5112 84.2633 60.6388C89.3909 65.7664 97.7044 65.7664 102.832 60.6388Z" fill="#1E293B"/>
<path d="M124.165 64.7297C128.855 60.0395 128.855 52.4352 124.165 47.745C119.474 43.0548 111.87 43.0548 107.18 47.745C102.49 52.4352 102.49 60.0395 107.18 64.7297C111.87 69.4199 119.474 69.4199 124.165 64.7297Z" fill="#5D5D5D"/>
<path d="M91.5 181C111.5 180.5 128.5 175 140 166.5C133.02 154.79 116.95 142.77 102.33 142.77H80.3297C65.7097 142.77 48.47 154.79 41.5 166.5C50.5 173 71.5 181.5 91.5 181Z" fill="#1E293B"/>
<path d="M98.8298 143.05C98.8298 147.41 95.2998 150.94 90.9398 150.94C86.5798 150.94 83.0498 147.41 83.0498 143.05V123.82C83.0498 119.46 86.5798 115.93 90.9398 115.93C95.2998 115.93 98.8298 119.46 98.8298 123.82V143.05Z" fill="#C89875"/>
<path d="M61.8001 107.47C67.4444 107.47 72.0201 102.895 72.0201 97.2503C72.0201 91.6059 67.4444 87.0303 61.8001 87.0303C56.1557 87.0303 51.5801 91.6059 51.5801 97.2503C51.5801 102.895 56.1557 107.47 61.8001 107.47Z" fill="#C89875"/>
<path d="M122.95 107.39C128.594 107.39 133.17 102.815 133.17 97.1702C133.17 91.5258 128.594 86.9502 122.95 86.9502C117.306 86.9502 112.73 91.5258 112.73 97.1702C112.73 102.815 117.306 107.39 122.95 107.39Z" fill="#C89875"/>
<path d="M95.8698 51.75H88.8998C73.5076 51.75 61.0298 64.2278 61.0298 79.62V108.89C61.0298 124.282 73.5076 136.76 88.8998 136.76H95.8698C111.262 136.76 123.74 124.282 123.74 108.89V79.62C123.74 64.2278 111.262 51.75 95.8698 51.75Z" fill="#C89875"/>
<circle cx="80" cy="94" r="4" fill="black"/>
<circle cx="104" cy="94" r="4" fill="black"/>
<path d="M95.8701 51.75H88.9001C88.1401 51.75 87.3801 51.79 86.6401 51.85C100.97 53 112.25 64.99 112.25 79.62V108.89C112.25 123.52 100.98 135.51 86.6401 136.66C87.3901 136.72 88.1401 136.76 88.9001 136.76H95.8701C111.26 136.76 123.74 124.28 123.74 108.89V79.62C123.74 64.23 111.26 51.75 95.8701 51.75Z" fill="#C89875"/>
<path d="M95.9099 51.2695H88.8599C73.2899 51.2695 60.6699 63.8895 60.6699 79.4595V99.8895H64.8399V90.7295L68.3599 88.2595L69.0599 70.6795C77.9299 72.0795 85.8599 72.2395 92.5199 71.8295C99.1799 72.2395 107.11 72.0795 115.98 70.6795L116.68 88.2595L120.2 90.7295V99.8895H124.08V79.4595C124.08 63.8895 111.46 51.2695 95.8899 51.2695H95.9099Z" fill="#1E293B"/>
<path d="M102.33 142.77H80.3297C79.1997 142.77 78.0897 142.83 76.9897 142.92C79.4597 148.38 84.9497 152.18 91.3297 152.18C97.7097 152.18 103.2 148.38 105.67 142.92C104.57 142.83 103.46 142.77 102.33 142.77Z" fill="#C89875"/>
<path d="M66.3198 71.4797C66.3198 75.2097 69.3398 78.2397 73.0798 78.2397C76.8198 78.2397 79.8398 75.2197 79.8398 71.4797C79.8398 67.7397 76.8198 64.7197 73.0798 64.7197C69.3398 64.7197 66.3198 67.7397 66.3198 71.4797Z" fill="#1E293B"/>
<path d="M79.1699 71.4797C79.1699 75.2097 82.1899 78.2397 85.9299 78.2397C89.6699 78.2397 92.6899 75.2197 92.6899 71.4797C92.6899 67.7397 89.6699 64.7197 85.9299 64.7197C82.1899 64.7197 79.1699 67.7397 79.1699 71.4797Z" fill="#1E293B"/>
<path d="M92.2397 71.4797C92.2397 75.2097 95.2597 78.2397 98.9997 78.2397C102.74 78.2397 105.76 75.2197 105.76 71.4797C105.76 67.7397 102.74 64.7197 98.9997 64.7197C95.2597 64.7197 92.2397 67.7397 92.2397 71.4797Z" fill="#1E293B"/>
<path d="M105.31 71.4797C105.31 75.2097 108.33 78.2397 112.07 78.2397C115.81 78.2397 118.83 75.2197 118.83 71.4797C118.83 67.7397 115.81 64.7197 112.07 64.7197C108.33 64.7197 105.31 67.7397 105.31 71.4797Z" fill="#1E293B"/>
<path d="M134.93 71.1103C134.93 66.1003 131.45 61.9003 126.78 60.7803C127.36 59.3803 127.68 57.8403 127.68 56.2303C127.68 49.6003 122.3 44.2203 115.67 44.2203C111.93 44.2203 108.59 45.9303 106.39 48.6103C105.24 43.1803 100.74 39.0103 95.1499 38.3203C98.0099 41.7903 99.5399 46.5103 99.0399 50.6503V50.6903C104.16 51.8803 108.02 56.6103 109.48 61.7103C109.64 61.7703 109.81 61.8403 109.97 61.9203C110.6 62.2403 111.21 62.6203 111.78 63.0403C112.12 63.2403 112.45 63.4603 112.73 63.7203C113.81 64.7603 114.15 65.0803 114.76 66.1703C115.91 67.9903 116.47 70.1303 116.04 72.4203C115.58 74.8703 114.31 76.8603 112.33 78.2203C113.59 78.1403 115.14 77.5503 116.07 76.7703C116.28 77.0703 116.05 77.8103 116.29 78.0803L116.7 88.2603L120.22 90.7303V99.8903H124.1L124.28 87.0603C126.52 87.2103 128.53 88.3803 130.07 89.9303C130.61 88.9603 130.93 87.6703 130.93 86.4703C130.93 84.2203 129.82 82.2303 128.13 81.0003C132.1 79.4603 134.93 75.6103 134.93 71.0903V71.1103Z" fill="#1E293B"/>
</g>
<defs>
<filter id="filter0_d_4040_9741" x="0" y="0" width="190" height="189.021" filterUnits="userSpaceOnUse" color-interpolation-filters="sRGB">
<feFlood flood-opacity="0" result="BackgroundImageFix"/>
<feColorMatrix in="SourceAlpha" type="matrix" values="0 0 0 0 0 0 0 0 0 0 0 0 0 0 0 0 0 0 127 0" result="hardAlpha"/>
<feOffset dx="4" dy="4"/>
<feGaussianBlur stdDeviation="2"/>
<feColorMatrix type="matrix" values="0 0 0 0 0 0 0 0 0 0 0 0 0 0 0 0 0 0 0.22 0"/>
<feBlend mode="normal" in2="BackgroundImageFix" result="effect1_dropShadow_4040_9741"/>
<feBlend mode="normal" in="SourceGraphic" in2="effect1_dropShadow_4040_9741" result="shape"/>
</filter>
</defs>
</svg>
