<svg width="206" height="170" viewBox="0 0 206 170" fill="none" xmlns="http://www.w3.org/2000/svg">
<path d="M185.359 149.667H171.713V149.77H185.359V149.667Z" fill="#EBEBEB"/>
<path d="M136.463 150.781H132.881V150.884H136.463V150.781Z" fill="#EBEBEB"/>
<path d="M171.301 145.854H163.394V145.956H171.301V145.854Z" fill="#EBEBEB"/>
<path d="M39.4088 146.543H21.6133V146.646H39.4088V146.543Z" fill="#EBEBEB"/>
<path d="M45.6863 146.543H43.0771V146.646H45.6863V146.543Z" fill="#EBEBEB"/>
<path d="M92.7605 148.277H54.166V148.38H92.7605V148.277Z" fill="#EBEBEB"/>
<path d="M98.221 124.739H18.6642C17.3676 124.739 16.3125 123.687 16.3125 122.395V10.9137C16.3125 9.62118 17.3676 8.56934 18.6642 8.56934H98.221C99.5171 8.56934 100.572 9.62118 100.572 10.9137V122.395C100.572 123.687 99.5171 124.739 98.221 124.739ZM18.6642 8.67242C17.4241 8.67242 16.4155 9.67785 16.4155 10.9141V122.395C16.4155 123.631 17.4241 124.637 18.6642 124.637H98.221C99.4607 124.637 100.469 123.631 100.469 122.395V10.9137C100.469 9.67785 99.4607 8.67201 98.221 8.67201L18.6642 8.67242Z" fill="#EBEBEB"/>
<path d="M187.335 124.739H107.779C106.482 124.739 105.427 123.687 105.427 122.395V10.9137C105.427 9.62118 106.482 8.56934 107.779 8.56934H187.335C188.632 8.56934 189.687 9.62118 189.687 10.9137V122.395C189.687 123.687 188.632 124.739 187.335 124.739ZM107.779 8.67242C106.539 8.67242 105.53 9.67785 105.53 10.9141V122.395C105.53 123.631 106.539 124.637 107.779 124.637H187.335C188.575 124.637 189.584 123.631 189.584 122.395V10.9137C189.584 9.67785 188.575 8.67201 187.335 8.67201L107.779 8.67242Z" fill="#EBEBEB"/>
<path d="M206 143.057H0V143.159H206V143.057Z" fill="#EBEBEB"/>
<path d="M37.4422 91.6076C34.8619 90.8124 33.1632 90.2892 31.1452 89.6674C30.685 89.5257 30.8074 88.8451 31.2886 88.8706C33.6415 88.9942 35.5681 89.0961 38.5452 89.2538C36.8312 86.2823 35.8194 84.4279 34.6649 82.1016C34.4532 81.6753 35.0201 81.2937 35.3373 81.6494C36.8865 83.3863 38.1826 84.798 40.2599 87.0199C40.756 84.1437 41.3299 81.4966 42.0488 78.8352C42.1782 78.3559 42.8955 78.4803 42.8518 78.9748C42.6598 81.134 42.5898 83.312 42.6421 85.4165C42.7389 85.4506 42.743 85.4522 42.8394 85.4863C44.5834 83.505 46.414 81.6001 48.3211 79.7745C48.6882 79.4229 49.237 79.9273 48.9218 80.3257C47.0707 82.6655 45.3572 85.113 43.7982 87.6569C46.2887 86.7205 48.7937 85.812 51.3073 84.9323C51.7765 84.768 52.0773 85.428 51.6447 85.6724C49.0367 87.1456 46.458 88.6533 43.8826 90.2145C46.5994 91.077 48.3714 91.6396 50.5183 92.321C50.9773 92.4668 50.8508 93.1457 50.37 93.1166C48.1699 92.9839 46.3427 92.8742 43.551 92.7067C44.8986 94.2801 45.8355 95.3591 46.9252 96.5801C47.2437 96.937 46.7926 97.4549 46.3934 97.1909C45.0226 96.284 43.8167 95.4794 42.0616 94.3048C42.2396 95.7028 42.3945 96.7842 42.5795 97.8455C42.6643 98.331 41.9755 98.5224 41.7958 98.0632C41.3402 96.9009 40.9232 95.7439 40.3938 94.2103C38.4121 103.663 38.9259 112.826 40.8421 122.223C39.892 122.052 39.4174 121.966 38.4673 121.796C37.0793 112.161 37.4385 103.535 39.5805 94.0641C38.3903 95.288 37.5156 96.2125 36.6813 97.1428C36.3513 97.5108 35.7703 97.0836 36.0262 96.6606C36.5861 95.7349 37.195 94.7923 38.0079 93.5749C35.8878 94.0382 34.4355 94.3586 32.8348 94.7179C32.3631 94.8239 32.1299 94.1696 32.5625 93.9552C34.0556 93.2155 35.4255 92.5584 37.4422 91.6076Z" fill="#EBEBEB"/>
<path d="M34.0924 94.8734C36.0477 93.84 37.4559 93.0954 38.9276 92.3175C39.4978 92.016 39.1666 91.1515 38.5395 91.3047C36.7028 91.7536 34.9943 92.1721 32.568 92.766C33.5411 89.9711 34.1562 88.0913 34.7557 86.0217C34.9333 85.4085 34.0903 85.0421 33.7595 85.5884C32.7777 87.2103 31.8429 88.7118 30.4651 90.8903C29.63 88.6654 28.7731 86.5991 27.8333 84.5698C27.5544 83.9677 26.6447 84.2946 26.809 84.9374C27.221 86.5462 27.5622 88.1668 27.8246 89.7588C27.736 89.8101 27.7323 89.8126 27.6438 89.8639C26.0806 88.6474 24.4775 87.4822 22.839 86.3687C22.2754 85.9855 21.6549 86.7614 22.1584 87.2201C23.8843 88.7936 25.5368 90.4467 27.1077 92.1746C24.9917 91.8062 22.8699 91.4571 20.7452 91.1281C20.086 91.0258 19.8553 91.9664 20.4857 92.1836C22.8312 92.9923 25.1648 93.8298 27.5029 94.7034C25.419 95.8279 23.9374 96.6271 22.3586 97.479C21.7913 97.7849 22.1283 98.647 22.7537 98.4889C24.4503 98.0605 26.0518 97.6564 28.2955 97.0904C27.4926 98.4918 26.8787 99.5514 26.2479 100.615C25.922 101.165 26.6459 101.729 27.1032 101.283C27.996 100.411 28.8835 99.5387 30.0577 98.3829C30.1088 99.2146 30.1475 99.9363 30.1739 100.61C30.1994 101.266 31.1528 101.325 31.2615 100.677C31.3975 99.8673 31.5297 99.0031 31.6781 97.9804C35.3947 106.899 36.6056 115.996 36.4824 125.584C37.3839 125.24 37.8342 125.067 38.7352 124.722C38.2952 114.999 36.3271 106.591 32.4493 97.6855C33.303 98.2844 34.0207 98.7957 34.6758 99.2758C35.213 99.6693 35.8578 98.9469 35.4005 98.463C34.9551 97.9915 34.4665 97.4872 33.902 96.9126C35.5546 96.959 36.8108 96.9956 38.0402 97.035C38.6887 97.0559 38.8287 96.1339 38.2029 95.9626C36.9916 95.6303 35.7441 95.3009 34.0924 94.8734Z" fill="#F0F0F0"/>
<path d="M42.6331 100.054C41.1713 99.2814 40.1289 98.7306 39.0264 98.1474C38.6227 97.9342 38.8567 97.3219 39.3004 97.4303C40.674 97.7663 41.936 98.0747 43.7442 98.5179C43.0216 96.4429 42.57 95.0601 42.1255 93.5182C42.0002 93.0837 42.5964 92.8241 42.8308 93.2114C43.5634 94.4226 44.2522 95.5299 45.2773 97.151C45.9011 95.4884 46.5421 93.9474 47.2475 92.4323C47.4456 92.0068 48.0904 92.2389 47.973 92.6931C47.657 93.9133 47.3966 95.1438 47.198 96.3513C47.2545 96.3842 47.2569 96.3854 47.3138 96.4187C48.5008 95.4942 49.7195 94.6099 50.9662 93.7671C51.3658 93.4969 51.8013 94.0505 51.4437 94.375C50.1455 95.5521 48.9037 96.7908 47.725 98.0874C49.3091 97.8118 50.8978 97.5506 52.4885 97.305C52.9545 97.2331 53.1193 97.8989 52.6739 98.0521C50.9233 98.6546 49.1818 99.2789 47.437 99.9307C48.9919 100.77 50.087 101.36 51.2686 101.998C51.6703 102.215 51.4313 102.825 50.9888 102.713C49.7186 102.392 48.5341 102.093 46.8594 101.671C47.4634 102.725 47.9207 103.514 48.3961 104.315C48.6273 104.704 48.1156 105.105 47.7913 104.788C47.1193 104.132 46.4581 103.483 45.5748 102.613C45.5344 103.266 45.5051 103.825 45.4858 104.348C45.4685 104.812 44.794 104.856 44.7161 104.398C44.6103 103.775 44.5085 103.113 44.3935 102.319C41.6842 108.821 40.8013 115.453 40.8911 122.442C40.2344 122.191 39.9056 122.065 39.2489 121.814C39.5699 114.725 41.0044 108.596 43.8312 102.104C43.1641 102.572 42.6112 102.967 42.1061 103.338C41.7267 103.617 41.2702 103.106 41.5928 102.763C41.9409 102.393 42.3237 101.997 42.7719 101.541C41.524 101.576 40.5854 101.603 39.658 101.633C39.1986 101.648 39.1002 100.996 39.5431 100.874C40.4557 100.622 41.3864 100.377 42.6331 100.054Z" fill="#F5F5F5"/>
<path d="M32.461 142.988H44.7476C45.6067 142.988 46.3174 142.322 46.3701 141.467L47.6724 120.342C47.7297 119.409 29.4785 119.409 29.5358 120.342L30.8381 141.467C30.8913 142.322 31.602 142.988 32.461 142.988Z" fill="#F0F0F0"/>
<path d="M31.7147 94.1751C31.3901 93.9073 31.2236 93.4937 31.2726 93.0764L31.5491 90.7354L30.9191 91.8242C30.5463 92.4686 29.6914 92.6419 29.0956 92.1938L27.8633 91.2668L28.9898 93.0793C29.3123 93.598 29.2073 94.2737 28.7421 94.6708L27.2861 95.9149L28.7137 95.5904C29.3391 95.4483 29.9703 95.8044 30.1697 96.4118L30.6612 97.9072L30.9756 96.3165C31.1169 95.6019 31.8433 95.1629 32.5445 95.3682L33.5036 95.6495L31.7147 94.1751Z" fill="#E6E6E6"/>
<path d="M39.9106 90.1417C40.1479 89.9462 40.2695 89.6439 40.2336 89.3391L40.0317 87.6289L40.4919 88.4241C40.7643 88.8947 41.3889 89.0212 41.8239 88.6939L42.7242 88.0166L41.9014 89.3403C41.6657 89.7194 41.7428 90.2127 42.0823 90.5031L43.146 91.412L42.1033 91.175C41.6464 91.0711 41.1853 91.3311 41.0395 91.7751L40.6806 92.8672L40.4512 91.7052C40.3482 91.1832 39.8175 90.8625 39.3054 91.0124L38.605 91.2177L39.9106 90.1417Z" fill="#F5F5F5"/>
<path d="M44.7674 99.9427C44.9375 99.8022 45.0249 99.5858 44.9989 99.3669L44.8543 98.1396L45.1847 98.7105C45.3804 99.0481 45.8283 99.1389 46.1406 98.904L46.7866 98.4181L46.1962 99.3681C46.0273 99.64 46.0825 99.9944 46.326 100.202L47.089 100.854L46.3408 100.684C46.0129 100.61 45.682 100.797 45.5774 101.115L45.3199 101.899L45.1551 101.065C45.0809 100.691 44.7002 100.46 44.3327 100.568L43.8301 100.716L44.7674 99.9427Z" fill="#E6E6E6"/>
<path d="M158.469 44.8906H147.688C147.388 44.8906 147.145 44.6483 147.145 44.3489V42.2576C147.145 41.9586 147.388 41.7158 147.688 41.7158H158.469C158.769 41.7158 159.013 41.9586 159.013 42.2576V44.3489C159.013 44.6483 158.769 44.8906 158.469 44.8906Z" fill="#F5F5F5"/>
<path d="M154.845 48.8252H144.063C143.764 48.8252 143.52 48.5829 143.52 48.2835V46.1921C143.52 45.8927 143.764 45.6504 144.063 45.6504H154.845C155.145 45.6504 155.389 45.8927 155.389 46.1921V48.2835C155.389 48.5825 155.145 48.8252 154.845 48.8252Z" fill="#F5F5F5"/>
<path d="M167.267 48.8252H156.486C156.186 48.8252 155.942 48.5829 155.942 48.2835V46.1921C155.942 45.8927 156.186 45.6504 156.486 45.6504H167.267C167.567 45.6504 167.81 45.8927 167.81 46.1921V48.2835C167.81 48.5825 167.567 48.8252 167.267 48.8252Z" fill="#F0F0F0"/>
<path d="M173.029 19.8132H161.526C161.226 19.8132 160.983 19.5704 160.983 19.2714V16.987C160.983 16.688 161.226 16.4453 161.526 16.4453H173.029C173.329 16.4453 173.573 16.688 173.573 16.987V19.2714C173.573 19.5704 173.329 19.8132 173.029 19.8132Z" fill="#F5F5F5"/>
<path d="M173.029 28.1686H161.526C161.226 28.1686 160.983 27.9263 160.983 27.6269V25.3425C160.983 25.0431 161.226 24.8008 161.526 24.8008H173.029C173.329 24.8008 173.573 25.0431 173.573 25.3425V27.6269C173.573 27.9263 173.329 28.1686 173.029 28.1686Z" fill="#F5F5F5"/>
<path d="M169.185 23.987H157.682C157.382 23.987 157.139 23.7443 157.139 23.4453V21.1609C157.139 20.8615 157.382 20.6191 157.682 20.6191H169.185C169.485 20.6191 169.729 20.8615 169.729 21.1609V23.4453C169.729 23.7443 169.485 23.987 169.185 23.987Z" fill="#F5F5F5"/>
<path d="M182.362 23.987H170.859C170.559 23.987 170.316 23.7443 170.316 23.4453V21.1609C170.316 20.8615 170.559 20.6191 170.859 20.6191H182.362C182.663 20.6191 182.906 20.8615 182.906 21.1609V23.4453C182.906 23.7443 182.662 23.987 182.362 23.987Z" fill="#F0F0F0"/>
<path d="M90.2013 118.743L169.324 118.743V116.476L90.2013 116.476V118.743Z" fill="#F5F5F5"/>
<path d="M168.732 118.743H186.455V116.476H168.732V118.743Z" fill="#EBEBEB"/>
<path d="M98.4234 124.256V118.743H94.7368L98.4234 124.256Z" fill="#E0E0E0"/>
<path d="M96.5802 124.256L92.894 118.743H94.7369L98.4235 124.256H96.5802Z" fill="#FAFAFA"/>
<path d="M183.569 124.256V118.743H179.883L183.569 124.256Z" fill="#E0E0E0"/>
<path d="M181.726 124.256L178.04 118.743H179.883L183.569 124.256H181.726Z" fill="#FAFAFA"/>
<path d="M173.795 116.784H175.878C176.815 116.784 177.567 116.009 177.535 115.075L177.27 107.247H172.402L172.137 115.075C172.106 116.009 172.857 116.784 173.795 116.784Z" fill="#F0F0F0"/>
<path d="M164.951 111.828C166.756 110.028 166.756 107.11 164.951 105.311C163.146 103.511 160.219 103.511 158.414 105.311C156.608 107.11 156.608 110.028 158.414 111.828C160.219 113.627 163.146 113.627 164.951 111.828Z" fill="#F0F0F0"/>
<path d="M161.361 116.715H162.007V113.661H161.684C158.868 113.661 156.577 111.377 156.577 108.57C156.577 105.763 158.868 103.479 161.684 103.479V102.835C158.512 102.835 155.932 105.408 155.932 108.57C155.932 111.624 158.339 114.128 161.362 114.296V116.715H161.361Z" fill="#EBEBEB"/>
<path d="M158.969 116.784H164.466C164.466 116.106 163.914 115.556 163.234 115.556H160.202C159.521 115.556 158.969 116.106 158.969 116.784Z" fill="#EBEBEB"/>
<path d="M174.105 116.784L169.762 112.455L165.419 116.784H174.105Z" fill="#F5F5F5"/>
<path d="M169.762 112.455L174.105 116.784H169.762V112.455Z" fill="#E6E6E6"/>
<path d="M139.485 111.119C139.507 111.529 139.519 111.857 139.519 112.075C139.519 113.965 138.667 115.651 137.328 116.784H129.695C128.356 115.651 127.503 113.965 127.503 112.075C127.503 111.857 127.516 111.53 127.538 111.119H139.485Z" fill="#F5F5F5"/>
<path d="M138.419 114.49C138.419 115.41 138.835 116.232 139.487 116.784H143.206C143.628 116.427 143.948 115.956 144.124 115.419C144.196 115.432 144.271 115.441 144.349 115.441C145.094 115.441 145.928 114.85 145.928 114.06C145.928 113.233 145.449 112.678 144.735 112.678C144.575 112.678 144.411 112.707 144.251 112.758C144.25 112.739 144.25 112.722 144.25 112.704C144.243 112.307 143.919 111.988 143.521 111.988H139.172C138.774 111.988 138.449 112.307 138.443 112.704C138.429 113.531 138.419 114.204 138.419 114.49ZM144.231 114.971C144.256 114.814 144.274 114.654 144.274 114.49C144.274 114.27 144.268 113.821 144.26 113.25C144.414 113.181 144.58 113.142 144.736 113.142C145.411 113.142 145.464 113.845 145.464 114.06C145.464 114.569 144.854 114.979 144.349 114.979C144.307 114.979 144.268 114.976 144.231 114.971Z" fill="#EBEBEB"/>
<path d="M104.003 116.784L104.612 109.848H95.7886L95.1797 116.784H104.003Z" fill="#F0F0F0"/>
<path d="M104.003 116.784L104.612 109.848H105.087L104.479 116.784H104.003Z" fill="#E0E0E0"/>
<path d="M103.166 116.077L103.651 110.555H96.626L96.1411 116.077H103.166Z" fill="#FAFAFA"/>
<path d="M102.628 115.623L103.032 111.01H97.1644L96.7598 115.623H102.628Z" fill="#EBEBEB"/>
<path d="M113.952 116.784H105.087L106.071 105.578H114.935L113.952 116.784Z" fill="#F0F0F0"/>
<path d="M113.952 116.784H114.375L115.358 105.578H114.935L113.952 116.784Z" fill="#E0E0E0"/>
<path d="M113.148 115.642H106.091L106.874 106.721H113.931L113.148 115.642Z" fill="#E0E0E0"/>
<path d="M112.631 114.907H106.737L107.391 107.455H113.286L112.631 114.907Z" fill="#FAFAFA"/>
<path d="M108.382 111.496L108.963 112.076C109.475 112.585 110.303 112.585 110.814 112.076L111.395 111.496C111.906 110.987 111.906 110.161 111.395 109.652L110.814 109.072C110.303 108.563 109.475 108.563 108.964 109.072L108.383 109.652C107.871 110.161 107.871 110.987 108.382 111.496Z" fill="#EBEBEB"/>
<path d="M108.089 113.64L108.376 113.927C108.887 114.436 109.716 114.436 110.227 113.927L110.514 113.64C111.025 113.131 111.025 112.305 110.514 111.795L110.227 111.509C109.716 110.999 108.887 111 108.376 111.509L108.089 111.795C107.578 112.305 107.578 113.131 108.089 113.64Z" fill="#E6E6E6"/>
<path d="M28.5854 33.1611H41.177C41.4773 33.1611 41.7204 33.4035 41.7204 33.7029V36.2785C41.7204 36.5779 41.4773 36.8202 41.177 36.8202H28.5854C28.2851 36.8202 28.042 36.5779 28.042 36.2785V33.7029C28.042 33.4039 28.2851 33.1611 28.5854 33.1611Z" fill="#F5F5F5"/>
<path d="M34.9751 28.627H47.5666C47.8666 28.627 48.11 28.8693 48.11 29.1687V31.7443C48.11 32.0433 47.8666 32.286 47.5666 32.286H34.9751C34.6747 32.286 34.4316 32.0433 34.4316 31.7443V29.1687C34.4316 28.8697 34.6751 28.627 34.9751 28.627Z" fill="#F5F5F5"/>
<path d="M20.6587 28.627H33.2502C33.5506 28.627 33.7936 28.8693 33.7936 29.1687V31.7443C33.7936 32.0433 33.5506 32.286 33.2502 32.286H20.6587C20.3583 32.286 20.1152 32.0433 20.1152 31.7443V29.1687C20.1152 28.8697 20.3583 28.627 20.6587 28.627Z" fill="#F0F0F0"/>
<path d="M103 160.026C147.118 160.026 182.882 157.944 182.882 155.375C182.882 152.807 147.118 150.725 103 150.725C58.8822 150.725 23.1177 152.807 23.1177 155.375C23.1177 157.944 58.8822 160.026 103 160.026Z" fill="#F5F5F5"/>
<path d="M161.809 99.9864H137.705C133.467 99.9864 130.03 96.5611 130.03 92.3352V27.1199C130.03 22.8945 133.466 19.4688 137.705 19.4688H161.809C166.048 19.4688 169.485 22.8941 169.485 27.1199V92.3352C169.485 96.5606 166.048 99.9864 161.809 99.9864Z" fill="#1E293B"/>
<path opacity="0.3" d="M161.895 19.4688H137.619C133.428 19.4688 130.03 22.8559 130.03 27.0341V92.4206C130.03 96.5988 133.428 99.986 137.619 99.986H161.895C166.086 99.986 169.484 96.5988 169.484 92.4206V27.0341C169.485 22.8559 166.087 19.4688 161.895 19.4688Z" fill="black"/>
<path d="M169.485 23.4192V39.3869H130.03V23.4192C130.03 21.2387 131.805 19.4697 133.994 19.4697H165.521C167.71 19.4697 169.485 21.2387 169.485 23.4192Z" fill="#1E293B"/>
<path d="M141.192 28.0669C141.192 28.8534 140.608 29.3385 139.665 29.3385H138.856V30.3702H138.189V26.7949H139.665C140.608 26.7949 141.192 27.275 141.192 28.0669ZM140.521 28.0669C140.521 27.6172 140.219 27.3568 139.635 27.3568H138.856V28.777H139.635C140.219 28.7766 140.521 28.5162 140.521 28.0669Z" fill="white"/>
<path d="M143.355 27.6123V28.2202C143.298 28.2099 143.252 28.2046 143.206 28.2046C142.719 28.2046 142.412 28.4908 142.412 29.0473V30.3702H141.771V27.6427H142.381V28.0411C142.566 27.7552 142.899 27.6123 143.355 27.6123Z" fill="white"/>
<path d="M146.435 29.2108H144.288C144.364 29.6092 144.698 29.8647 145.174 29.8647C145.482 29.8647 145.723 29.7677 145.917 29.5681L146.26 29.9616C146.014 30.2528 145.63 30.406 145.159 30.406C144.242 30.406 143.647 29.8187 143.647 29.0067C143.647 28.1943 144.247 27.6123 145.061 27.6123C145.861 27.6123 146.445 28.1688 146.445 29.0219C146.445 29.0728 146.44 29.1492 146.435 29.2108ZM144.282 28.7865H145.835C145.783 28.3935 145.481 28.1224 145.061 28.1224C144.646 28.1228 144.344 28.3881 144.282 28.7865Z" fill="white"/>
<path d="M151.635 28.8075V30.3702H150.994V28.8888C150.994 28.4038 150.769 28.1688 150.379 28.1688C149.959 28.1688 149.667 28.4444 149.667 28.9861V30.3702H149.027V28.8888C149.027 28.4038 148.801 28.1688 148.412 28.1688C147.987 28.1688 147.7 28.4444 147.7 28.9861V30.3702H147.059V27.6427H147.669V27.9902C147.874 27.745 148.192 27.6123 148.565 27.6123C148.965 27.6123 149.298 27.7602 149.488 28.067C149.708 27.786 150.077 27.6123 150.512 27.6123C151.174 27.6123 151.635 27.9852 151.635 28.8075Z" fill="white"/>
<path d="M152.368 26.81C152.368 26.5956 152.542 26.4268 152.778 26.4268C153.013 26.4268 153.188 26.5853 153.188 26.7948C153.188 27.0194 153.019 27.1931 152.778 27.1931C152.542 27.1931 152.368 27.0248 152.368 26.81ZM152.455 27.6429H153.096V30.3704H152.455V27.6429Z" fill="white"/>
<path d="M156.584 27.6426V30.3701H155.975V30.0227C155.769 30.2728 155.447 30.4059 155.093 30.4059C154.391 30.4059 153.915 30.0227 153.915 29.2004V27.6426H154.555V29.1138C154.555 29.6091 154.791 29.844 155.196 29.844C155.642 29.844 155.944 29.568 155.944 29.0213V27.6426H156.584Z" fill="white"/>
<path d="M162 28.8075V30.3702H161.36V28.8888C161.36 28.4038 161.134 28.1688 160.745 28.1688C160.325 28.1688 160.033 28.4444 160.033 28.9861V30.3702H159.393V28.8888C159.393 28.4038 159.167 28.1688 158.778 28.1688C158.353 28.1688 158.065 28.4444 158.065 28.9861V30.3702H157.425V27.6427H158.035V27.9902C158.24 27.745 158.557 27.6123 158.931 27.6123C159.331 27.6123 159.664 27.7602 159.854 28.067C160.074 27.786 160.443 27.6123 160.878 27.6123C161.539 27.6123 162 27.9852 162 28.8075Z" fill="white"/>
<path d="M157.993 95.7105H141.522C139.282 95.7105 137.466 93.9005 137.466 91.6678V91.3614C137.466 89.1288 139.282 87.3184 141.522 87.3184H157.993C160.232 87.3184 162.048 89.1284 162.048 91.3614V91.6678C162.048 93.9005 160.232 95.7105 157.993 95.7105Z" fill="#1E293B"/>
<path d="M143.382 92.1575C143.382 92.9206 142.766 93.4312 141.805 93.5113L141.678 94.1425H141.103L141.229 93.5113C140.682 93.4595 140.199 93.2878 139.905 93.0697L140.291 92.3584C140.596 92.5822 140.981 92.7256 141.379 92.7658L141.575 91.7961C141.04 91.6355 140.452 91.4232 140.452 90.7287C140.452 89.9656 141.08 89.4493 142.058 89.3803L142.185 88.749H142.76L142.634 89.386C143.043 89.4259 143.417 89.5409 143.693 89.713L143.342 90.4243C143.094 90.258 142.795 90.1602 142.484 90.1261L142.283 91.1361C142.812 91.2909 143.382 91.4975 143.382 92.1575ZM141.736 90.9751L141.903 90.1487C141.575 90.212 141.391 90.3894 141.385 90.6075C141.385 90.7862 141.529 90.8888 141.736 90.9751ZM142.449 92.3062C142.449 92.1399 142.317 92.0364 142.116 91.962L141.96 92.7482C142.271 92.6849 142.449 92.5243 142.449 92.3062Z" fill="white"/>
<path d="M159.518 70.1514H139.151V70.9728H159.518V70.1514Z" fill="#1E293B"/>
<path d="M159.518 56.6631H139.151V57.4845H159.518V56.6631Z" fill="#1E293B"/>
<path d="M159.518 43.6631H139.151V44.4845H159.518V43.6631Z" fill="#1E293B"/>
<path d="M151.673 53.0367C153.056 51.6578 153.056 49.4222 151.673 48.0433C150.29 46.6644 148.047 46.6644 146.664 48.0433C145.28 49.4222 145.28 51.6579 146.664 53.0367C148.047 54.4156 150.29 54.4156 151.673 53.0367Z" fill="#1E293B"/>
<path d="M151.705 49.7759L149.667 51.8073L148.717 52.756L147.765 51.8073L148.716 50.8598L150.753 48.8271L151.705 49.7759Z" fill="white"/>
<path d="M149.667 51.8077L148.717 52.7565L146.698 50.7444L147.649 49.7969L148.715 50.8602L149.667 51.8077Z" fill="white"/>
<path d="M149.17 67.1048C151.126 67.1048 152.712 65.5239 152.712 63.5739C152.712 61.6238 151.126 60.043 149.17 60.043C147.214 60.043 145.628 61.6238 145.628 63.5739C145.628 65.5239 147.214 67.1048 149.17 67.1048Z" fill="#1E293B"/>
<path d="M151.705 62.8091L149.667 64.8405L148.717 65.7892L147.765 64.8405L148.716 63.8934L150.753 61.8604L151.705 62.8091Z" fill="white"/>
<path d="M149.667 64.8405L148.717 65.7893L146.698 63.7772L147.649 62.8301L148.715 63.8934L149.667 64.8405Z" fill="white"/>
<path d="M149.17 81.0804C151.126 81.0804 152.712 79.4995 152.712 77.5495C152.712 75.5994 151.126 74.0186 149.17 74.0186C147.214 74.0186 145.628 75.5994 145.628 77.5495C145.628 79.4995 147.214 81.0804 149.17 81.0804Z" fill="#1E293B"/>
<path d="M151.705 76.7847L149.667 78.8161L148.717 79.7648L147.765 78.8161L148.716 77.869L150.753 75.8359L151.705 76.7847Z" fill="white"/>
<path d="M149.667 78.8161L148.717 79.7649L146.698 77.7528L147.649 76.8057L148.715 77.869L149.667 78.8161Z" fill="white"/>
<path d="M144.524 33.7314L145.187 34.7882L146.4 35.0901L145.597 36.045L145.684 37.2882L144.524 36.8217L143.365 37.2882L143.452 36.045L142.648 35.0901L143.862 34.7882L144.524 33.7314Z" fill="white"/>
<path d="M149.17 33.7314L149.832 34.7882L151.046 35.0901L150.242 36.045L150.329 37.2882L149.17 36.8217L148.01 37.2882L148.097 36.045L147.294 35.0901L148.507 34.7882L149.17 33.7314Z" fill="white"/>
<path d="M153.814 33.7314L154.477 34.7882L155.69 35.0901L154.887 36.045L154.974 37.2882L153.814 36.8217L152.655 37.2882L152.742 36.045L151.938 35.0901L153.151 34.7882L153.814 33.7314Z" fill="white"/>
<path d="M115.457 95.4034H91.3529C87.1142 95.4034 83.6777 91.9781 83.6777 87.7522V22.5369C83.6777 18.3115 87.1138 14.8857 91.3529 14.8857H115.457C119.696 14.8857 123.132 18.3111 123.132 22.5369V87.7522C123.132 91.9781 119.696 95.4034 115.457 95.4034Z" fill="#1E293B"/>
<path opacity="0.5" d="M115.201 14.8867H91.6084C87.2288 14.8867 83.6782 18.4263 83.6782 22.7921V87.4961C83.6782 91.8632 87.2297 95.4036 91.6105 95.4036H115.201C119.582 95.4036 123.133 91.8632 123.133 87.4961V22.7942C123.133 18.4267 119.582 14.8867 115.201 14.8867Z" fill="white"/>
<path d="M123.133 18.8361V34.8039H83.6787V18.8361C83.6787 16.6557 85.4532 14.8867 87.6426 14.8867H119.169C121.359 14.8867 123.133 16.6557 123.133 18.8361Z" fill="#1E293B"/>
<path d="M91.8125 25.4099L92.0432 24.894C92.33 25.124 92.7861 25.2871 93.2265 25.2871C93.7847 25.2871 94.0204 25.0879 94.0204 24.8222C94.0204 24.0508 91.8891 24.5568 91.8891 23.2286C91.8891 22.6515 92.3506 22.1611 93.334 22.1611C93.7641 22.1611 94.2153 22.2737 94.5276 22.4778L94.3175 22.9937C93.9945 22.8047 93.641 22.7127 93.3287 22.7127C92.7753 22.7127 92.55 22.9271 92.55 23.1978C92.55 23.9588 94.6763 23.4635 94.6763 24.7762C94.6763 25.3483 94.2103 25.8387 93.2265 25.8387C92.6682 25.8391 92.11 25.6653 91.8125 25.4099Z" fill="white"/>
<path d="M96.9211 25.6398C96.7674 25.7626 96.5367 25.8238 96.3064 25.8238C95.7069 25.8238 95.3633 25.5072 95.3633 24.9046V23.592H94.9126V23.0815H95.3633V22.458H96.004V23.0815H96.7365V23.592H96.004V24.8894C96.004 25.1548 96.1371 25.2981 96.383 25.2981C96.5161 25.2981 96.6442 25.2624 96.7419 25.186L96.9211 25.6398Z" fill="white"/>
<path d="M99.7392 24.1883V25.7872H99.1348V25.4554C98.9811 25.6903 98.6836 25.823 98.2741 25.823C97.6491 25.823 97.2544 25.4809 97.2544 25.0057C97.2544 24.5514 97.5617 24.1937 98.3919 24.1937H99.0989V24.1526C99.0989 23.7797 98.8736 23.5604 98.4175 23.5604C98.1101 23.5604 97.7925 23.6622 97.5873 23.831L97.3364 23.3665C97.6285 23.1418 98.0537 23.0293 98.4945 23.0293C99.2831 23.0293 99.7392 23.4018 99.7392 24.1883ZM99.0989 24.9342V24.6175H98.4381C98.0026 24.6175 97.8848 24.781 97.8848 24.9802C97.8848 25.2102 98.0796 25.358 98.4076 25.358C98.7199 25.3585 98.9914 25.2151 99.0989 24.9342Z" fill="white"/>
<path d="M103.254 24.2245V25.7872H102.614V24.3062C102.614 23.8212 102.373 23.5862 101.963 23.5862C101.507 23.5862 101.2 23.8618 101.2 24.4085V25.7877H100.559V23.0601H101.169V23.4125C101.379 23.1624 101.712 23.0293 102.112 23.0293C102.767 23.0293 103.254 23.4018 103.254 24.2245Z" fill="white"/>
<path d="M106.774 21.998V25.7881H106.159V25.4357C105.944 25.6961 105.626 25.8238 105.252 25.8238C104.458 25.8238 103.869 25.2723 103.869 24.4245C103.869 23.5768 104.458 23.0302 105.252 23.0302C105.606 23.0302 105.918 23.1476 106.133 23.3982V21.9985L106.774 21.998ZM106.144 24.4241C106.144 23.9033 105.79 23.5711 105.329 23.5711C104.868 23.5711 104.514 23.9029 104.514 24.4241C104.514 24.9453 104.868 25.2772 105.329 25.2772C105.79 25.2768 106.144 24.9449 106.144 24.4241Z" fill="white"/>
<path d="M109.905 24.1883V25.7872H109.301V25.4554C109.147 25.6903 108.85 25.823 108.44 25.823C107.815 25.823 107.42 25.4809 107.42 25.0057C107.42 24.5514 107.728 24.1937 108.558 24.1937H109.265V24.1526C109.265 23.7797 109.04 23.5604 108.583 23.5604C108.276 23.5604 107.958 23.6622 107.753 23.831L107.502 23.3665C107.795 23.1418 108.22 23.0293 108.661 23.0293C109.449 23.0293 109.905 23.4018 109.905 24.1883ZM109.265 24.9342V24.6175H108.604C108.168 24.6175 108.05 24.781 108.05 24.9802C108.05 25.2102 108.245 25.358 108.573 25.358C108.885 25.3585 109.157 25.2151 109.265 24.9342Z" fill="white"/>
<path d="M112.308 23.0293V23.6372C112.251 23.6269 112.205 23.6215 112.16 23.6215C111.673 23.6215 111.365 23.9078 111.365 24.4643V25.7872H110.725V23.0597H111.334V23.4581C111.519 23.1722 111.852 23.0293 112.308 23.0293Z" fill="white"/>
<path d="M115.506 21.998V25.7881H114.89V25.4357C114.675 25.6961 114.358 25.8238 113.984 25.8238C113.19 25.8238 112.601 25.2723 112.601 24.4245C112.601 23.5768 113.19 23.0302 113.984 23.0302C114.337 23.0302 114.65 23.1476 114.865 23.3982V21.9985L115.506 21.998ZM114.875 24.4241C114.875 23.9033 114.522 23.5711 114.06 23.5711C113.599 23.5711 113.246 23.9029 113.246 24.4241C113.246 24.9453 113.599 25.2772 114.06 25.2772C114.522 25.2768 114.875 24.9449 114.875 24.4241Z" fill="white"/>
<path d="M111.974 91.1275H95.5026C93.263 91.1275 91.4473 89.3175 91.4473 87.0848V86.7784C91.4473 84.5458 93.263 82.7354 95.5026 82.7354H111.974C114.213 82.7354 116.029 84.5454 116.029 86.7784V87.0848C116.029 89.3175 114.214 91.1275 111.974 91.1275Z" fill="#1E293B"/>
<path d="M113.498 65.5684H93.1313V66.3898H113.498V65.5684Z" fill="#1E293B"/>
<path d="M113.498 52.0801H93.1313V52.9015H113.498V52.0801Z" fill="#1E293B"/>
<path d="M113.498 39.0801H93.1313V39.9015H113.498V39.0801Z" fill="#1E293B"/>
<path d="M106.454 59.8115C106.904 57.9137 105.725 56.012 103.821 55.5638C101.917 55.1157 100.01 56.2909 99.56 58.1887C99.1105 60.0865 100.289 61.9883 102.193 62.4364C104.097 62.8845 106.005 61.7093 106.454 59.8115Z" fill="#1E293B"/>
<path d="M105.541 58.2271L103.504 60.2585L102.553 61.2072L101.602 60.2585L102.552 59.3109L104.589 57.2783L105.541 58.2271Z" fill="white"/>
<path d="M103.504 60.2589L102.553 61.2077L100.535 59.1956L101.485 58.248L102.551 59.3114L103.504 60.2589Z" fill="white"/>
<path d="M104.674 76.2278C106.481 75.4815 107.339 73.416 106.591 71.6143C105.842 69.8127 103.77 68.9571 101.963 69.7034C100.156 70.4497 99.2973 72.5152 100.046 74.3169C100.795 76.1186 102.867 76.9741 104.674 76.2278Z" fill="#1E293B"/>
<path d="M105.85 72.2017L103.812 74.2331L102.862 75.1818L101.911 74.2331L102.861 73.2856L104.898 71.2529L105.85 72.2017Z" fill="white"/>
<path d="M103.812 74.2335L102.862 75.1823L100.844 73.1702L101.794 72.2227L102.86 73.286L103.812 74.2335Z" fill="white"/>
<path d="M103.006 49.4866C104.942 49.4866 106.511 47.9219 106.511 45.9918C106.511 44.0617 104.942 42.4971 103.006 42.4971C101.07 42.4971 99.5 44.0617 99.5 45.9918C99.5 47.9219 101.07 49.4866 103.006 49.4866Z" fill="#040504"/>
<path opacity="0.5" d="M103.006 49.4866C104.942 49.4866 106.511 47.9219 106.511 45.9918C106.511 44.0617 104.942 42.4971 103.006 42.4971C101.07 42.4971 99.5 44.0617 99.5 45.9918C99.5 47.9219 101.07 49.4866 103.006 49.4866Z" fill="white"/>
<path d="M104.044 44.0187L101.023 47.0303L101.965 47.9686L104.986 44.957L104.044 44.0187Z" fill="white"/>
<path d="M101.025 44.9571L104.046 47.9688L104.987 47.0304L101.966 44.0188L101.025 44.9571Z" fill="white"/>
<path d="M119.191 19.3037V28.6787L121.176 26.7003V19.3037H119.191Z" fill="#1E293B"/>
<path d="M123.16 19.3037V28.6787L121.176 26.7003V19.3037H123.16Z" fill="#1E293B"/>
<g opacity="0.3">
<path d="M123.162 19.3027V28.681L121.178 26.6985L119.189 28.681V19.3027H123.162Z" fill="black"/>
</g>
<path d="M122.145 9.93374C122.429 10.466 123.086 10.6788 123.63 10.4151C124.44 10.0225 125.362 10.6899 125.238 11.5791C125.154 12.1766 125.56 12.7332 126.156 12.8387C127.042 12.9956 127.394 14.0758 126.769 14.7223C126.35 15.1568 126.35 15.8447 126.769 16.2793C127.394 16.9257 127.042 18.0059 126.156 18.1628C125.559 18.2684 125.154 18.8249 125.238 19.4225C125.362 20.3117 124.44 20.9791 123.63 20.5864C123.086 20.3223 122.43 20.5351 122.145 21.0678C121.721 21.8601 120.582 21.8601 120.158 21.0678C119.873 20.5351 119.217 20.3228 118.672 20.5864C117.862 20.9791 116.941 20.3117 117.065 19.4225C117.149 18.8249 116.743 18.2684 116.147 18.1628C115.261 18.0059 114.908 16.9257 115.533 16.2793C115.953 15.8447 115.953 15.1568 115.533 14.7223C114.909 14.0758 115.261 12.9956 116.147 12.8387C116.743 12.7332 117.149 12.1766 117.065 11.5791C116.941 10.6899 117.862 10.0225 118.672 10.4151C119.217 10.6792 119.873 10.4664 120.158 9.93374C120.582 9.14188 121.721 9.14188 122.145 9.93374Z" fill="#1E293B"/>
<path d="M122.145 9.93374C122.429 10.466 123.086 10.6788 123.63 10.4151C124.44 10.0225 125.362 10.6899 125.238 11.5791C125.154 12.1766 125.56 12.7332 126.156 12.8387C127.042 12.9956 127.394 14.0758 126.769 14.7223C126.35 15.1568 126.35 15.8447 126.769 16.2793C127.394 16.9257 127.042 18.0059 126.156 18.1628C125.559 18.2684 125.154 18.8249 125.238 19.4225C125.362 20.3117 124.44 20.9791 123.63 20.5864C123.086 20.3223 122.43 20.5351 122.145 21.0678C121.721 21.8601 120.582 21.8601 120.158 21.0678C119.873 20.5351 119.217 20.3228 118.672 20.5864C117.862 20.9791 116.941 20.3117 117.065 19.4225C117.149 18.8249 116.743 18.2684 116.147 18.1628C115.261 18.0059 114.908 16.9257 115.533 16.2793C115.953 15.8447 115.953 15.1568 115.533 14.7223C114.909 14.0758 115.261 12.9956 116.147 12.8387C116.743 12.7332 117.149 12.1766 117.065 11.5791C116.941 10.6899 117.862 10.0225 118.672 10.4151C119.217 10.6792 119.873 10.4664 120.158 9.93374C120.582 9.14188 121.721 9.14188 122.145 9.93374Z" fill="#1E293B"/>
<g opacity="0.5">
<path d="M122.145 9.93374C122.429 10.466 123.086 10.6788 123.63 10.4151C124.44 10.0225 125.362 10.6899 125.238 11.5791C125.154 12.1766 125.56 12.7332 126.156 12.8387C127.042 12.9956 127.394 14.0758 126.769 14.7223C126.35 15.1568 126.35 15.8447 126.769 16.2793C127.394 16.9257 127.042 18.0059 126.156 18.1628C125.559 18.2684 125.154 18.8249 125.238 19.4225C125.362 20.3117 124.44 20.9791 123.63 20.5864C123.086 20.3223 122.43 20.5351 122.145 21.0678C121.721 21.8601 120.582 21.8601 120.158 21.0678C119.873 20.5351 119.217 20.3228 118.672 20.5864C117.862 20.9791 116.941 20.3117 117.065 19.4225C117.149 18.8249 116.743 18.2684 116.147 18.1628C115.261 18.0059 114.908 16.9257 115.533 16.2793C115.953 15.8447 115.953 15.1568 115.533 14.7223C114.909 14.0758 115.261 12.9956 116.147 12.8387C116.743 12.7332 117.149 12.1766 117.065 11.5791C116.941 10.6899 117.862 10.0225 118.672 10.4151C119.217 10.6792 119.873 10.4664 120.158 9.93374C120.582 9.14188 121.721 9.14188 122.145 9.93374Z" fill="white"/>
</g>
<path d="M119.369 14.3242H118.859C118.618 14.3242 118.412 14.5193 118.4 14.7596L118.276 17.1064C118.264 17.3467 118.45 17.5413 118.69 17.5413H119.2C119.441 17.5413 119.647 17.3463 119.659 17.1064L119.783 14.7596C119.795 14.5193 119.61 14.3242 119.369 14.3242Z" fill="white"/>
<path d="M123.444 14.3248H122.247L122.58 13.5436C122.616 13.4586 122.63 13.3662 122.62 13.2775L122.549 12.6614C122.521 12.4146 122.311 12.2285 122.062 12.2285H121.466C121.434 12.8491 121.208 13.4442 120.821 13.9313L120.454 14.3922C120.358 14.5117 120.302 14.6604 120.293 14.8107L120.178 17.0055C120.162 17.3004 120.392 17.5415 120.688 17.5415H122.777C122.96 17.5415 123.138 17.4614 123.265 17.3214L123.46 17.1053C123.537 17.0199 123.59 16.9164 123.615 16.8047L124.014 15.0345C124.051 14.8702 124.015 14.6981 123.915 14.5626C123.804 14.4131 123.629 14.3248 123.444 14.3248Z" fill="white"/>
<path d="M103.006 28.6787L103.669 29.7355L104.882 30.0374L104.078 30.9923L104.165 32.2355L103.006 31.7689L101.847 32.2355L101.933 30.9923L101.13 30.0374L102.343 29.7355L103.006 28.6787Z" fill="white"/>
<path d="M97.4891 87.5863C97.4891 88.3494 96.8732 88.8599 95.912 88.94L95.7855 89.5712H95.21L95.3365 88.94C94.7897 88.8886 94.306 88.7165 94.0127 88.4984L94.3983 87.7871C94.7036 88.0109 95.0888 88.1543 95.4864 88.1945L95.6821 87.2248C95.1469 87.0642 94.5598 86.8519 94.5598 86.1574C94.5598 85.3943 95.1873 84.878 96.1658 84.809L96.2923 84.1777H96.8679L96.7414 84.8148C97.1501 84.8546 97.5242 84.9696 97.8002 85.1417L97.4492 85.853C97.2016 85.6867 96.9025 85.5889 96.5914 85.5549L96.3899 86.5648C96.9194 86.7196 97.4891 86.9262 97.4891 87.5863ZM95.8432 86.4042L96.0101 85.5779C95.6821 85.6411 95.498 85.8185 95.4922 86.0366C95.4922 86.2149 95.636 86.318 95.8432 86.4042ZM96.5568 87.7353C96.5568 87.569 96.4241 87.4655 96.2231 87.3912L96.0677 88.1773C96.3784 88.1136 96.5568 87.9534 96.5568 87.7353Z" fill="white"/>
<path d="M68.2948 99.9864H44.1908C39.9521 99.9864 36.5156 96.5611 36.5156 92.3352V27.1199C36.5156 22.8945 39.9517 19.4688 44.1908 19.4688H68.2948C72.5335 19.4688 75.97 22.8941 75.97 27.1199V92.3352C75.97 96.5606 72.5339 99.9864 68.2948 99.9864Z" fill="#040504"/>
<path opacity="0.7" d="M68.1763 19.4688H44.3099C40.0053 19.4688 36.5161 22.9475 36.5161 27.2386V92.2169C36.5161 96.5081 40.0058 99.9868 44.3099 99.9868H68.1763C72.4808 99.9868 75.9701 96.5081 75.9701 92.2169V27.2382C75.9701 22.9475 72.4804 19.4688 68.1763 19.4688Z" fill="white"/>
<path d="M75.97 23.4192V39.3869H36.5156V23.4192C36.5156 21.2387 38.2901 19.4697 40.4795 19.4697H72.0061C74.1955 19.4697 75.97 21.2387 75.97 23.4192Z" fill="#1E293B"/>
<path d="M75.97 23.4192V39.3869H36.5156V23.4192C36.5156 21.2387 38.2901 19.4697 40.4795 19.4697H72.0061C74.1955 19.4697 75.97 21.2387 75.97 23.4192Z" fill="#1E293B"/>
<path d="M53.0012 29.3997C53.0012 30.0125 52.5196 30.3702 51.5971 30.3702H49.814V26.7949H51.4945C52.3552 26.7949 52.8166 27.1576 52.8166 27.7244C52.8166 28.0924 52.632 28.363 52.3556 28.5109C52.74 28.6333 53.0012 28.9347 53.0012 29.3997ZM50.4806 27.3157V28.3014H51.4232C51.8843 28.3014 52.1455 28.138 52.1455 27.811C52.1455 27.4792 51.8843 27.3157 51.4232 27.3157H50.4806ZM52.33 29.3331C52.33 28.9754 52.0585 28.8173 51.5563 28.8173H50.4806V29.849H51.5563C52.0585 29.849 52.33 29.6905 52.33 29.3331Z" fill="white"/>
<path d="M55.9428 28.7713V30.3702H55.3384V30.0384C55.1847 30.2733 54.8872 30.406 54.4777 30.406C53.8527 30.406 53.458 30.0639 53.458 29.5887C53.458 29.1344 53.7654 28.7767 54.5955 28.7767H55.3025V28.7356C55.3025 28.3627 55.0772 28.1434 54.6211 28.1434C54.3137 28.1434 53.9961 28.2456 53.7909 28.414L53.54 27.9495C53.8321 27.7248 54.2573 27.6123 54.6981 27.6123C55.4867 27.6119 55.9428 27.9848 55.9428 28.7713ZM55.3021 29.5172V29.2005H54.6413C54.2058 29.2005 54.088 29.364 54.088 29.5632C54.088 29.7932 54.2828 29.9411 54.6104 29.9411C54.9231 29.9411 55.1946 29.7981 55.3021 29.5172Z" fill="white"/>
<path d="M56.4497 30.0996L56.6957 29.6145C56.9367 29.7727 57.3054 29.8852 57.649 29.8852C58.0536 29.8852 58.2229 29.7731 58.2229 29.5841C58.2229 29.0629 56.5321 29.5533 56.5321 28.4654C56.5321 27.9495 56.9985 27.6123 57.736 27.6123C58.0998 27.6123 58.5151 27.699 58.7606 27.8472L58.5146 28.3327C58.2534 28.1795 57.9918 28.1286 57.7306 28.1286C57.3413 28.1286 57.1567 28.2563 57.1567 28.435C57.1567 28.9866 58.8475 28.4962 58.8475 29.5636C58.8475 30.0745 58.3762 30.4064 57.6078 30.4064C57.1518 30.406 56.6957 30.2733 56.4497 30.0996Z" fill="white"/>
<path d="M59.3145 26.81C59.3145 26.5956 59.4887 26.4268 59.7244 26.4268C59.9601 26.4268 60.1343 26.5853 60.1343 26.7948C60.1343 27.0194 59.9654 27.1931 59.7244 27.1931C59.4883 27.1931 59.3145 27.0248 59.3145 26.81ZM59.4014 27.6429H60.042V30.3704H59.4014V27.6429Z" fill="white"/>
<path d="M60.6567 29.0067C60.6567 28.1894 61.2714 27.6123 62.1375 27.6123C62.6702 27.6123 63.0958 27.832 63.3055 28.2456L62.8136 28.5315C62.6496 28.2711 62.4036 28.1536 62.1321 28.1536C61.6608 28.1536 61.3019 28.4806 61.3019 29.0067C61.3019 29.5381 61.6608 29.8597 62.1321 29.8597C62.4036 29.8597 62.6496 29.7423 62.8136 29.4819L63.3055 29.7681C63.0954 30.1768 62.6702 30.4064 62.1375 30.4064C61.2714 30.406 60.6567 29.824 60.6567 29.0067Z" fill="white"/>
<path d="M58.1334 66.7817C59.5025 65.4169 59.5025 63.2042 58.1334 61.8394C56.7644 60.4746 54.5447 60.4746 53.1757 61.8394C51.8066 63.2042 51.8066 65.4169 53.1757 66.7817C54.5447 68.1465 56.7644 68.1465 58.1334 66.7817Z" fill="#040504"/>
<path opacity="0.5" d="M58.1334 66.7817C59.5025 65.4169 59.5025 63.2042 58.1334 61.8394C56.7644 60.4746 54.5447 60.4746 53.1757 61.8394C51.8066 63.2042 51.8066 65.4169 53.1757 66.7817C54.5447 68.1465 56.7644 68.1465 58.1334 66.7817Z" fill="white"/>
<path d="M56.6944 62.3351L53.6733 65.3467L54.6146 66.285L57.6357 63.2734L56.6944 62.3351Z" fill="white"/>
<path d="M53.6748 63.2755L56.6958 66.2871L57.6371 65.3488L54.616 62.3372L53.6748 63.2755Z" fill="white"/>
<path d="M55.8193 80.7562C57.7755 80.7562 59.3613 79.1753 59.3613 77.2252C59.3613 75.2752 57.7755 73.6943 55.8193 73.6943C53.8631 73.6943 52.2773 75.2752 52.2773 77.2252C52.2773 79.1753 53.8631 80.7562 55.8193 80.7562Z" fill="#1E293B"/>
<path d="M58.3546 76.4615L56.3172 78.4928L55.3668 79.4416L54.415 78.4928L55.3651 77.5453L57.4029 75.5127L58.3546 76.4615Z" fill="white"/>
<path d="M56.317 78.4933L55.3665 79.442L53.3481 77.4299L54.2982 76.4824L55.3649 77.5458L56.317 78.4933Z" fill="white"/>
<path d="M64.4784 95.7105H48.0075C45.7678 95.7105 43.9521 93.9005 43.9521 91.6678V91.3614C43.9521 89.1288 45.7678 87.3184 48.0075 87.3184H64.4784C66.718 87.3184 68.5337 89.1284 68.5337 91.3614V91.6678C68.5337 93.9005 66.718 95.7105 64.4784 95.7105Z" fill="#1E293B"/>
<path d="M49.2797 92.3089C49.2797 93.072 48.6642 93.5825 47.7025 93.6626L47.5761 94.2939H47.0005L47.127 93.6626C46.5803 93.6109 46.0966 93.4392 45.8032 93.2211L46.1889 92.5097C46.4941 92.7336 46.8794 92.8769 47.2769 92.9172L47.4726 91.9475C46.9375 91.7869 46.3504 91.5745 46.3504 90.88C46.3504 90.1169 46.9778 89.6007 47.9563 89.5317L48.0828 88.9004H48.6584L48.5319 89.5374C48.9406 89.5772 49.3147 89.6922 49.5912 89.8643L49.2401 90.5757C48.9925 90.4094 48.6934 90.3116 48.3823 90.2775L48.1809 91.2875C48.7103 91.4423 49.2797 91.6489 49.2797 92.3089ZM47.6337 91.1269L47.8006 90.3005C47.4726 90.3638 47.2885 90.5412 47.2827 90.7593C47.2827 90.9375 47.4265 91.0406 47.6337 91.1269ZM48.3473 92.458C48.3473 92.2917 48.2147 92.1882 48.0136 92.1138L47.8583 92.8999C48.1689 92.8363 48.3473 92.6761 48.3473 92.458Z" fill="white"/>
<path d="M66.003 70.1514H45.6362V70.9728H66.003V70.1514Z" fill="#1E293B"/>
<path d="M66.003 56.6631H45.6362V57.4845H66.003V56.6631Z" fill="#1E293B"/>
<path d="M66.003 43.6631H45.6362V44.4845H66.003V43.6631Z" fill="#1E293B"/>
<path d="M58.1329 53.0463C59.502 51.6816 59.502 49.4688 58.1329 48.104C56.7639 46.7393 54.5442 46.7393 53.1752 48.104C51.8061 49.4688 51.8061 51.6816 53.1752 53.0463C54.5442 54.4111 56.7639 54.4111 58.1329 53.0463Z" fill="#040504"/>
<path opacity="0.5" d="M58.1329 53.0463C59.502 51.6816 59.502 49.4688 58.1329 48.104C56.7639 46.7393 54.5442 46.7393 53.1752 48.104C51.8061 49.4688 51.8061 51.6816 53.1752 53.0463C54.5442 54.4111 56.7639 54.4111 58.1329 53.0463Z" fill="white"/>
<path d="M56.6939 48.5997L53.6729 51.6113L54.6141 52.5497L57.6352 49.538L56.6939 48.5997Z" fill="white"/>
<path d="M53.6743 49.5392L56.6953 52.5508L57.6366 51.6124L54.6155 48.6008L53.6743 49.5392Z" fill="white"/>
<path d="M107.157 154.03L110.316 154.607L112.707 148.794L109.255 147.42L107.157 154.03Z" fill="#FFC2BC"/>
<path opacity="0.1" d="M108.291 150.345L109.192 147.642L110.784 148.029L112.707 148.794L111.676 151.327L108.291 150.345Z" fill="black"/>
<path d="M106.54 152.941C106.526 152.929 106.417 152.829 106.253 152.701C106.135 152.61 105.994 152.503 105.84 152.399C105.508 152.176 105.122 151.974 104.828 151.976C104.711 151.976 104.598 152.019 104.517 152.09C104.409 152.169 104.369 152.303 104.415 152.424C104.512 152.627 104.938 152.808 105.373 152.914C105.473 152.934 105.568 152.955 105.667 152.975C105.934 153.023 106.201 153.059 106.473 153.079H106.477C106.509 153.079 106.54 153.062 106.554 153.028C106.572 153 106.562 152.966 106.54 152.941ZM105.879 152.858C105.286 152.757 104.661 152.573 104.573 152.365C104.559 152.336 104.55 152.282 104.64 152.202C104.689 152.156 104.757 152.131 104.829 152.135C104.888 152.134 104.942 152.142 104.997 152.154C105.382 152.302 105.736 152.508 106.055 152.769C106.114 152.811 106.173 152.86 106.232 152.91C106.119 152.898 106.001 152.878 105.879 152.858Z" fill="#1E293B"/>
<path d="M106.377 151.646C106.277 151.517 106.127 151.43 105.955 151.406C105.72 151.37 105.621 151.463 105.585 151.546C105.491 151.73 105.634 152.075 105.84 152.399C105.922 152.524 106.013 152.644 106.104 152.752C106.219 152.885 106.332 152.992 106.423 153.063C106.432 153.071 106.446 153.075 106.459 153.075C106.464 153.075 106.468 153.079 106.473 153.079H106.477C106.491 153.083 106.505 153.088 106.518 153.083C106.545 153.075 106.568 153.05 106.572 153.025C106.577 153.008 106.598 152.862 106.606 152.662C106.622 152.353 106.591 151.915 106.377 151.646ZM106.417 152.825C106.376 152.784 106.331 152.742 106.289 152.692C105.962 152.336 105.659 151.784 105.735 151.595C105.744 151.579 105.771 151.524 105.924 151.549L105.97 151.565C106.074 151.589 106.165 151.647 106.229 151.726C106.389 152.021 106.459 152.346 106.434 152.671C106.43 152.721 106.426 152.771 106.417 152.825Z" fill="#1E293B"/>
<path d="M106.955 152.711L110.773 153.622C110.917 153.656 111.016 153.778 111.012 153.914L110.898 156.943C110.89 157.211 110.648 157.423 110.356 157.416C110.319 157.414 110.281 157.41 110.245 157.402C108.874 157.051 107.67 156.69 105.955 156.284C103.933 155.803 104.383 156.148 101.997 155.613C100.559 155.289 100.718 153.725 101.346 153.796C104.217 154.136 104.723 153.431 106.053 152.77C106.336 152.649 106.657 152.628 106.955 152.711Z" fill="#040504"/>
<path d="M129.899 154.602H132.924L133.817 149.607L130.119 148.918L129.899 154.602Z" fill="#FFC2BC"/>
<path opacity="0.1" d="M130.118 148.918L133.817 149.607L133.215 152.972L129.995 152.841L130.118 148.918Z" fill="black"/>
<path d="M134.47 152.052L129.037 151.744L128.874 149.609L134.951 150.023L134.47 152.052Z" fill="#1E293B"/>
<path opacity="0.5" d="M134.47 152.052L129.037 151.744L128.874 149.609L134.951 150.023L134.47 152.052Z" fill="white"/>
<path d="M129.459 154.68C129.442 154.672 129.319 154.6 129.138 154.512C129.015 154.453 128.863 154.386 128.699 154.323C128.34 154.18 127.931 154.07 127.661 154.146C127.555 154.171 127.467 154.238 127.412 154.331C127.336 154.436 127.336 154.575 127.408 154.68C127.547 154.857 127.982 154.932 128.399 154.928C128.493 154.928 128.585 154.924 128.678 154.92C128.927 154.903 129.176 154.873 129.421 154.827H129.425C129.429 154.827 129.429 154.827 129.433 154.827C129.462 154.819 129.488 154.794 129.497 154.76C129.501 154.731 129.484 154.697 129.459 154.68ZM128.838 154.756C128.277 154.798 127.669 154.764 127.539 154.583C127.513 154.558 127.492 154.512 127.552 154.411C127.585 154.352 127.64 154.31 127.708 154.297C127.758 154.285 127.809 154.277 127.86 154.277C128.248 154.331 128.624 154.449 128.974 154.626C129.041 154.651 129.109 154.684 129.172 154.723C129.066 154.735 128.952 154.748 128.838 154.756Z" fill="#1E293B"/>
<path d="M129.509 154.752C129.509 154.735 129.492 154.588 129.45 154.39C129.378 154.083 129.239 153.667 128.978 153.452C128.855 153.351 128.695 153.301 128.535 153.322C128.311 153.343 128.243 153.452 128.235 153.545C128.197 153.751 128.421 154.058 128.699 154.324C128.801 154.425 128.91 154.517 129.016 154.593C129.151 154.698 129.282 154.778 129.387 154.824C129.396 154.828 129.408 154.832 129.421 154.828H129.425C129.429 154.828 129.429 154.828 129.433 154.828L129.434 154.827C129.448 154.829 129.462 154.83 129.475 154.824C129.497 154.807 129.514 154.782 129.509 154.752ZM128.383 153.558C128.387 153.537 128.4 153.482 128.543 153.465L128.585 153.469C128.687 153.469 128.788 153.503 128.864 153.57C129.083 153.818 129.227 154.121 129.29 154.441C129.303 154.496 129.311 154.546 129.315 154.597C129.269 154.567 129.219 154.533 129.168 154.5C128.779 154.227 128.366 153.76 128.383 153.558Z" fill="#1E293B"/>
<path d="M129.773 154.356L133.454 154.335C133.593 154.334 133.714 154.429 133.745 154.564L134.427 157.546C134.489 157.81 134.325 158.074 134.061 158.137C134.026 158.144 133.992 158.149 133.957 158.15C132.63 158.134 131.45 158.068 129.798 158.08C127.848 158.092 128.344 158.321 126.053 158.367C124.672 158.393 124.41 156.83 124.995 156.749C127.673 156.398 127.947 155.59 128.975 154.627C129.199 154.442 129.483 154.345 129.773 154.356Z" fill="#040504"/>
<path d="M123.081 80.8154L108.816 147.368L114.074 148.764C118.006 140.185 121.3 131.41 123.758 124.545C124.924 121.289 125.393 118.225 126.284 115.355C127.344 111.943 128.773 108.804 129.501 105.937C133.313 90.9309 133.004 83.4116 133.004 83.4116L133.816 81.4331L123.081 80.8154Z" fill="#040504"/>
<path opacity="0.3" d="M131.83 95.0996C131.311 98.1257 130.567 101.738 129.501 105.937C129.154 107.301 126.832 113.868 126.284 115.355C125.64 105.743 127.843 89.4941 127.843 89.4941L131.83 95.0996Z" fill="black"/>
<path d="M127.462 81.1587L128.537 117.719L129.479 149.745L134.437 150.086C135.817 142.246 136.829 135.133 137.557 128.728C138.033 124.544 137.224 121.483 137.482 117.898C137.525 117.302 137.573 116.689 137.625 116.067C138.49 105.8 138.567 95.4787 137.803 85.2034C137.657 83.2455 137.56 81.9366 137.56 81.9366L127.462 80.6494V81.1587Z" fill="#040504"/>
<path d="M113.379 150.619L108.179 149.021L108.534 146.909L114.334 148.764L113.379 150.619Z" fill="#1E293B"/>
<path opacity="0.5" d="M113.379 150.619L108.179 149.021L108.534 146.909L114.334 148.764L113.379 150.619Z" fill="white"/>
<path d="M126.753 57.9747C126.613 58.1714 125.438 59.7925 124.614 62.6519C124.412 63.3427 124.232 64.103 124.096 64.9371L123.734 65.9204L120.554 64.6607L120.052 64.464C120.826 60.9828 123.825 57.8363 126.051 57.8843C126.347 57.8897 126.578 57.911 126.753 57.9747Z" fill="#1E293B"/>
<path opacity="0.2" d="M126.753 57.9747C126.613 58.1714 125.438 59.7925 124.614 62.6519C124.412 63.3427 124.232 64.103 124.096 64.9371L123.734 65.9204L120.554 64.6607L120.052 64.464C120.826 60.9828 123.825 57.8363 126.051 57.8843C126.347 57.8897 126.578 57.911 126.753 57.9747Z" fill="white"/>
<path d="M122.792 80.5045C123.177 79.6527 123.129 77.9856 124.394 77.6726C126.074 77.2566 127.457 77.1358 134.074 77.6964C137.195 77.9609 137.888 80.4478 137.798 81.7235C137.786 81.8948 137.728 82.057 137.631 82.1979L137.499 82.3872C137.188 82.5059 123.029 80.9407 122.889 81.0269C122.889 81.0269 122.666 80.7846 122.792 80.5045Z" fill="#1E293B"/>
<path opacity="0.2" d="M122.792 80.5045C123.177 79.6527 123.129 77.9856 124.394 77.6726C126.074 77.2566 127.457 77.1358 134.074 77.6964C137.195 77.9609 137.888 80.4478 137.798 81.7235C137.786 81.8948 137.728 82.057 137.631 82.1979L137.499 82.3872C137.188 82.5059 123.029 80.9407 122.889 81.0269C122.889 81.0269 122.666 80.7846 122.792 80.5045Z" fill="white"/>
<path d="M126.221 57.9496C126.13 58.1168 123.316 58.4088 123.539 70.7023C123.567 72.2815 123.164 75.6383 123.164 75.6383C123.165 75.6415 123.164 75.6448 123.163 75.6477L122.756 76.6687C122.42 77.5095 122.472 78.4541 122.897 79.2534L123.1 79.6357C123.103 79.6411 123.108 79.6448 123.115 79.6452L137.383 81.0921C137.387 81.0925 137.391 81.0917 137.395 81.0897L137.805 81.0921C137.805 81.0921 138.725 73.6656 139.953 68.7029C140.354 67.0831 140.789 65.0969 140.789 65.0969C140.3 61.5598 140.357 59.415 140.37 59.4385C140.375 59.4475 140.367 59.4179 140.357 59.415C138.628 58.9053 136.864 58.5213 135.079 58.2667C133.184 57.9759 131.27 57.8207 129.353 57.8018C127.546 57.8478 126.224 57.9447 126.221 57.9496Z" fill="#1E293B"/>
<path d="M135.044 51.7979C134.531 53.6091 133.891 56.9462 135.083 58.2797L134.18 59.2195C132.592 60.8718 129.796 60.0573 129.35 57.8128C131.436 57.4862 130.994 55.3965 131.376 53.3762L135.044 51.7979Z" fill="#FFC2BC"/>
<path opacity="0.2" d="M130.289 51.291C130.722 52.7371 131.309 55.063 130.873 56.6673C132.749 56.8328 133.993 55.1349 134.068 54.5956C134.068 54.5956 133.606 53.2797 133.528 52.6357L130.289 51.291Z" fill="black"/>
<path d="M135.593 48.9652C135.369 52.0452 135.341 53.3521 133.764 54.9153C131.39 57.267 127.647 56.3195 126.943 53.2391C126.308 50.4635 126.78 45.898 129.819 44.7028C131.988 43.8428 134.445 44.8979 135.308 47.0599C135.55 47.6645 135.647 48.3167 135.593 48.9652Z" fill="#FFC2BC"/>
<path d="M137.379 47.5383C137.048 48.7047 136.892 49.7701 136.755 51.0934C136.376 51.0881 135.958 51.0877 135.578 51.0823C135.363 51.2967 135.274 51.6315 135.384 51.914C135.197 51.82 135.006 51.7066 134.899 51.5263C134.799 51.3563 134.787 51.1505 134.773 50.9534C134.722 50.2112 134.687 49.4272 134.533 48.6994C133.927 48.4542 133.226 48.5166 132.66 48.1909C131.395 47.4635 130.277 46.4955 129.419 45.3171C128.483 45.7176 127.758 46.6183 127.46 47.5896C127.193 47.6648 126.9 47.5157 126.738 47.2914C126.575 47.0672 126.519 46.7834 126.495 46.5078C126.434 45.7854 126.579 45.0235 127.02 44.4468C127.327 44.046 127.793 43.7482 128.295 43.6673C128.513 43.632 128.736 43.685 128.933 43.5917C129.146 43.4907 129.338 43.2348 129.55 43.1071C130.487 42.5448 131.679 42.4713 132.72 42.7522C134.038 43.1083 135.164 43.9614 136.159 44.8933C136.7 45.4013 137.581 46.8253 137.379 47.5383Z" fill="#040504"/>
<path d="M136.671 51.9264C136.369 52.4431 135.874 52.8189 135.294 52.9721C134.527 53.1663 134.16 52.4788 134.388 51.7654C134.591 51.1206 135.244 50.2568 136.003 50.3612C136.557 50.4593 136.927 50.9863 136.828 51.5387C136.803 51.6775 136.75 51.8098 136.671 51.9264Z" fill="#FFC2BC"/>
<path d="M130.809 49.7406C130.806 50.0088 130.659 50.2219 130.485 50.2244C130.312 50.2269 130.166 50.003 130.169 49.7348C130.173 49.4666 130.32 49.2535 130.494 49.251C130.667 49.2481 130.813 49.4724 130.809 49.7406Z" fill="#040504"/>
<path d="M127.754 49.7072C127.747 49.9766 127.602 50.1886 127.426 50.1927C127.248 50.1968 127.107 49.9709 127.112 49.6977C127.118 49.4246 127.26 49.2176 127.437 49.2139C127.613 49.2098 127.766 49.4312 127.754 49.7072Z" fill="#040504"/>
<path d="M128.957 50.2656C128.708 50.8776 128.377 51.4526 127.973 51.9758C128.25 52.1771 128.601 52.2461 128.934 52.1644L128.957 50.2656Z" fill="#EC837E"/>
<path d="M129.892 53.0747C129.739 53.1391 129.58 53.1876 129.418 53.2196C129.381 53.2279 129.345 53.2057 129.336 53.1691C129.332 53.1334 129.355 53.0997 129.39 53.0911C130.066 52.9679 130.642 52.5288 130.939 51.9103C130.948 51.8766 130.981 51.8548 131.015 51.8602C131.048 51.8639 131.071 51.8934 131.068 51.9259C131.067 51.9292 131.066 51.9329 131.066 51.9362C130.838 52.4537 130.417 52.8619 129.892 53.0747Z" fill="#040504"/>
<path d="M131.884 48.2176C131.849 48.2287 131.808 48.2184 131.777 48.1901C131.503 47.9285 131.146 47.8106 130.819 47.8738C130.763 47.8874 130.701 47.8488 130.678 47.7859C130.656 47.7235 130.683 47.6599 130.738 47.6447C130.739 47.6442 130.74 47.6442 130.74 47.6442C131.134 47.5621 131.568 47.7013 131.901 48.0172C131.95 48.0619 131.962 48.135 131.929 48.1835C131.917 48.1987 131.902 48.2106 131.884 48.2176Z" fill="#040504"/>
<path d="M126.946 48.3583C126.902 48.3748 126.853 48.3657 126.818 48.3353C126.762 48.2889 126.755 48.2068 126.801 48.1513L126.802 48.1505C127.118 47.7607 127.605 47.5492 128.106 47.585C128.176 47.5903 128.229 47.6511 128.223 47.7209C128.223 47.7246 128.222 47.7279 128.222 47.7316C128.213 47.803 128.146 47.8531 128.075 47.8433H128.074C127.66 47.8211 127.262 47.9985 127.003 48.3197C126.988 48.3374 126.968 48.3509 126.946 48.3583Z" fill="#040504"/>
<path d="M134.58 57.2979L135.72 58.3674C135.72 58.3674 131.598 61.2432 131.532 61.0588C131.466 60.8748 130.611 59.9141 130.611 59.9141L134.58 57.2979Z" fill="#1E293B"/>
<path d="M130.416 57.1973L128.961 57.7743C128.961 57.7743 129.206 60.8781 129.336 60.731C129.465 60.584 130.614 60.0037 130.614 60.0037L130.416 57.1973Z" fill="#1E293B"/>
<path opacity="0.2" d="M134.58 57.2979L135.72 58.3674C135.72 58.3674 131.598 61.2432 131.532 61.0588C131.466 60.8748 130.611 59.9141 130.611 59.9141L134.58 57.2979Z" fill="white"/>
<path opacity="0.2" d="M130.416 57.1973L128.961 57.7743C128.961 57.7743 129.206 60.8781 129.336 60.731C129.465 60.584 130.614 60.0037 130.614 60.0037L130.416 57.1973Z" fill="white"/>
<path d="M129.639 70.0164C129.904 70.405 132.051 70.0164 132.051 70.0164L133.89 70.1413C134.091 70.1446 134.266 69.993 134.294 69.7922L134.808 67.4741C134.822 67.3587 134.745 67.2593 134.635 67.24L133.179 66.9784C132.593 66.8732 131.99 67.0005 131.497 67.334L129.958 68.3756L129.639 70.0164Z" fill="#FFC2BC"/>
<path d="M130.044 68.262L129.949 70.0498C129.949 70.0498 121.67 73.1495 119.294 71.7925C117.737 70.9061 119.294 67.1452 120.555 64.6514L123.734 65.8383L122.685 68.5675L130.044 68.262Z" fill="#FFC2BC"/>
<g opacity="0.1">
<path d="M129.639 70.0164C129.904 70.405 132.051 70.0164 132.051 70.0164L133.89 70.1413C134.091 70.1446 134.266 69.993 134.294 69.7922L134.808 67.4741C134.822 67.3587 134.745 67.2593 134.635 67.24L133.179 66.9784C132.593 66.8732 131.99 67.0005 131.497 67.334L129.958 68.3756L129.639 70.0164Z" fill="black"/>
<path d="M130.044 68.262L129.949 70.0498C129.949 70.0498 121.67 73.1495 119.294 71.7925C117.737 70.9061 119.294 67.1452 120.555 64.6514L123.734 65.8383L122.685 68.5675L130.044 68.262Z" fill="black"/>
</g>
<path d="M139.845 60.7217L133.738 69.0982L124.796 67.4549L124.393 69.2116C124.393 69.2116 133.056 73.9105 135.421 72.5338C137.787 71.1575 141.766 62.8262 141.766 62.8262L139.845 60.7217Z" fill="#FFC2BC"/>
<path d="M124.393 69.2119C124.124 69.5971 121.982 69.1815 121.982 69.1815L120.141 69.2833C119.94 69.2842 119.767 69.1301 119.741 68.9293L119.257 66.6051C119.245 66.4897 119.322 66.3911 119.433 66.3734L120.892 66.1299C121.479 66.0317 122.081 66.1669 122.57 66.5065L124.801 67.5128L124.393 69.2119Z" fill="#FFC2BC"/>
<path d="M141.004 59.9355C142.442 61.6293 142.019 65.8174 139.948 68.4821L134.9 65.525C134.9 65.525 137.862 60.5381 139.497 59.5569C140.195 59.1379 140.478 59.3158 141.004 59.9355Z" fill="#1E293B"/>
<path opacity="0.2" d="M141.004 59.9355C142.442 61.6293 142.019 65.8174 139.948 68.4821L134.9 65.525C134.9 65.525 137.862 60.5381 139.497 59.5569C140.195 59.1379 140.478 59.3158 141.004 59.9355Z" fill="white"/>
</svg>
