<svg width="246" height="246" viewBox="0 0 246 246" fill="none" xmlns="http://www.w3.org/2000/svg">
<path d="M179.056 41.4108C179.163 40.4377 180.467 40.1853 180.943 41.0411C185.772 49.7308 196.147 74.4458 181.164 107.045C162.365 147.945 166.263 166.31 174.268 179.312C174.268 179.312 160.538 170.01 156.044 151.202C145.009 105.025 177.155 58.7135 179.056 41.4108Z" fill="#1E293B"/>
<path d="M180.057 56.3837C179.405 61.3977 178.654 66.3963 177.722 71.3602C176.816 76.3281 175.76 81.2663 174.551 86.1646C173.324 91.0577 172.005 95.9271 170.481 100.733C168.979 105.546 167.272 110.289 165.541 115.045C163.838 119.807 162.095 124.596 160.838 129.577C159.578 134.547 158.891 139.747 159.175 144.918C159.247 146.207 159.343 147.5 159.514 148.775C159.661 150.053 159.865 151.325 160.092 152.593C160.559 155.127 161.194 157.634 162.012 160.082C163.662 164.976 166.056 169.615 168.979 173.828C169.287 174.272 169.896 174.382 170.34 174.074C170.775 173.772 170.889 173.179 170.602 172.738L170.6 172.735C169.917 171.69 169.248 170.639 168.628 169.561C168.309 169.027 168.015 168.48 167.71 167.939C167.426 167.387 167.121 166.846 166.855 166.285C165.752 164.063 164.806 161.766 164.035 159.41C162.472 154.711 161.602 149.755 161.323 144.815C161.211 142.343 161.281 139.867 161.542 137.404C161.804 134.942 162.256 132.496 162.848 130.074C164.033 125.228 165.719 120.474 167.388 115.699C169.05 110.921 170.689 106.109 172.126 101.236C172.852 98.8018 173.533 96.3549 174.171 93.8971C174.496 92.6701 174.798 91.4369 175.102 90.2045C175.394 88.9692 175.68 87.7325 175.955 86.4937C177.047 81.5362 177.987 76.5478 178.768 71.5367C179.525 66.5218 180.149 61.4885 180.578 56.4397C180.59 56.2953 180.483 56.1685 180.339 56.1562C180.199 56.1443 180.075 56.2457 180.057 56.3837Z" fill="white"/>
<path d="M177.203 170.198C175.888 171.434 173.74 170.925 173.096 169.239C169.548 159.94 161.892 132.741 179.078 102.988C193.591 77.8636 199.073 62.8607 201.09 55.8775C201.517 54.4008 203.58 54.3269 204.114 55.7682C210.004 71.6699 224.84 125.442 177.203 170.198Z" fill="#324057"/>
<path d="M175.018 169.107C174.973 169.112 174.928 169.113 174.882 169.11C174.494 169.08 174.203 168.742 174.233 168.354C174.267 167.914 177.799 123.979 196.4 88.1328C196.579 87.7879 197.004 87.6532 197.35 87.832C197.695 88.0113 197.83 88.4363 197.651 88.7817C179.185 124.367 175.671 168.024 175.637 168.461C175.612 168.803 175.346 169.069 175.018 169.107Z" fill="white"/>
<path d="M45.9581 62.9842C45.9581 56.6637 51.0818 51.54 57.4023 51.54H154.724C160.094 51.54 164.521 55.7477 164.794 61.11L171.978 202.209C172.191 206.405 168.888 209.944 164.687 210.021L53.1438 212.048C49.1965 212.12 45.958 208.94 45.958 204.992V62.9842H45.9581Z" fill="url(#paint0_linear_4040_11996)"/>
<path d="M69.4463 209.649C69.4451 209.649 69.444 209.649 69.4428 209.649L56.9617 209.488C52.7883 209.434 49.3931 205.994 49.3931 201.82V182.976C49.3931 182.829 49.5124 182.71 49.6595 182.71C49.8066 182.71 49.926 182.829 49.926 182.976V201.82C49.926 205.704 53.0853 208.904 56.9686 208.955L69.4496 209.116C69.5967 209.118 69.7145 209.239 69.7126 209.386C69.7107 209.532 69.5918 209.649 69.4463 209.649Z" fill="#91B3FA"/>
<path d="M49.6595 177.406C49.5124 177.406 49.3931 177.287 49.3931 177.14V174.088C49.3931 173.941 49.5124 173.821 49.6595 173.821C49.8066 173.821 49.926 173.941 49.926 174.088V177.14C49.926 177.287 49.8067 177.406 49.6595 177.406Z" fill="white"/>
<path d="M53.9312 53.7115C53.9193 51.6893 55.6977 50.1242 57.7016 50.396C70.9918 52.1983 116.693 57.7724 154.479 54.8718C156.202 54.7395 157.698 56.0451 157.789 57.7709L165.322 199.499C165.425 201.442 163.941 203.104 161.998 203.219C146.107 204.159 80.6589 207.795 57.3147 205.35C55.8939 205.201 54.8154 204.005 54.807 202.576L53.9312 53.7115Z" fill="#4F6282"/>
<path d="M55.4966 57.2632C55.4852 55.3171 57.1966 53.811 59.125 54.0726C71.9148 55.807 115.895 61.1712 152.258 58.3798C153.916 58.2525 155.355 59.509 155.444 61.1698L162.693 197.561C162.792 199.431 161.364 201.03 159.494 201.141C144.201 202.046 81.2177 205.544 58.7525 203.191C57.3853 203.048 56.3474 201.897 56.3393 200.522L55.4966 57.2632Z" fill="#DDDDDD"/>
<path d="M70.3643 83.1949C69.5474 83.1949 68.8153 83.0623 68.1682 82.7971C67.521 82.5318 67.0012 82.1393 66.6086 81.6195C66.2267 81.0996 66.0251 80.4737 66.0039 79.7416H68.9002C68.9426 80.1554 69.0859 80.4737 69.3299 80.6965C69.5739 80.9086 69.8922 81.0147 70.2847 81.0147C70.6879 81.0147 71.0061 80.9246 71.2395 80.7442C71.4729 80.5532 71.5896 80.2933 71.5896 79.9644C71.5896 79.6886 71.4941 79.4605 71.3032 79.2801C71.1228 79.0998 70.8947 78.9512 70.6189 78.8345C70.3537 78.7178 69.9717 78.5852 69.4731 78.4367C68.7517 78.2139 68.1629 77.9911 67.7067 77.7683C67.2505 77.5455 66.8579 77.2166 66.5291 76.7817C66.2002 76.3467 66.0357 75.7791 66.0357 75.0789C66.0357 74.0392 66.4124 73.2276 67.1656 72.6441C67.9189 72.05 68.9002 71.7529 70.1097 71.7529C71.3403 71.7529 72.3323 72.05 73.0855 72.6441C73.8388 73.2276 74.2419 74.0445 74.295 75.0948H71.3509C71.3297 74.7341 71.1971 74.453 70.9531 74.2514C70.7091 74.0392 70.3961 73.9331 70.0142 73.9331C69.6853 73.9331 69.4201 74.0233 69.2185 74.2036C69.0169 74.3734 68.9161 74.6227 68.9161 74.9516C68.9161 75.3123 69.0859 75.5934 69.4254 75.795C69.7649 75.9966 70.2953 76.2141 71.0167 76.4475C71.7382 76.6915 72.3217 76.9249 72.7672 77.1477C73.2234 77.3705 73.616 77.6941 73.9449 78.1184C74.2738 78.5428 74.4382 79.0892 74.4382 79.7575C74.4382 80.3941 74.2738 80.9723 73.9449 81.4921C73.6266 82.012 73.1598 82.4257 72.5445 82.7334C71.9291 83.0411 71.2024 83.1949 70.3643 83.1949Z" fill="#1E293B"/>
<path d="M78.8341 74.0923V76.352H82.4784V78.4526H78.8341V80.9033H82.9558V83.0835H76.1129V71.9121H82.9558V74.0923H78.8341Z" fill="#1E293B"/>
<path d="M87.4437 80.9829H91.0084V83.0835H84.7224V71.9121H87.4437V80.9829Z" fill="#1E293B"/>
<path d="M95.0276 80.9829H98.5923V83.0835H92.3063V71.9121H95.0276V80.9829Z" fill="#1E293B"/>
<path d="M111.299 71.9121V74.0923H108.339V83.0835H105.618V74.0923H102.658V71.9121H111.299Z" fill="#1E293B"/>
<path d="M117.948 83.1949C116.898 83.1949 115.932 82.9509 115.052 82.4629C114.182 81.9749 113.487 81.2959 112.967 80.4259C112.458 79.5454 112.203 78.5587 112.203 77.466C112.203 76.3732 112.458 75.3919 112.967 74.5219C113.487 73.652 114.182 72.973 115.052 72.485C115.932 71.9969 116.898 71.7529 117.948 71.7529C118.998 71.7529 119.959 71.9969 120.829 72.485C121.709 72.973 122.399 73.652 122.897 74.5219C123.407 75.3919 123.661 76.3732 123.661 77.466C123.661 78.5587 123.407 79.5454 122.897 80.4259C122.388 81.2959 121.698 81.9749 120.829 82.4629C119.959 82.9509 118.998 83.1949 117.948 83.1949ZM117.948 80.7124C118.839 80.7124 119.55 80.4153 120.081 79.8212C120.622 79.2271 120.892 78.442 120.892 77.466C120.892 76.4793 120.622 75.6942 120.081 75.1107C119.55 74.5166 118.839 74.2196 117.948 74.2196C117.046 74.2196 116.325 74.5113 115.784 75.0948C115.253 75.6783 114.988 76.4687 114.988 77.466C114.988 78.4526 115.253 79.243 115.784 79.8371C116.325 80.4206 117.046 80.7124 117.948 80.7124Z" fill="#1E293B"/>
<path d="M131.221 71.9121V78.5958C131.221 79.2642 131.385 79.7788 131.714 80.1395C132.043 80.5002 132.526 80.6805 133.162 80.6805C133.799 80.6805 134.287 80.5002 134.626 80.1395C134.966 79.7788 135.136 79.2642 135.136 78.5958V71.9121H137.857V78.5799C137.857 79.5772 137.645 80.4206 137.22 81.1102C136.796 81.7998 136.223 82.3197 135.502 82.6698C134.791 83.0199 133.995 83.1949 133.115 83.1949C132.234 83.1949 131.444 83.0252 130.744 82.6857C130.054 82.3356 129.508 81.8157 129.104 81.1261C128.701 80.4259 128.5 79.5772 128.5 78.5799V71.9121H131.221Z" fill="#1E293B"/>
<path d="M143.81 83.1949C142.993 83.1949 142.261 83.0623 141.614 82.7971C140.967 82.5318 140.447 82.1393 140.054 81.6195C139.672 81.0996 139.471 80.4737 139.45 79.7416H142.346C142.388 80.1554 142.532 80.4737 142.776 80.6965C143.02 80.9086 143.338 81.0147 143.73 81.0147C144.134 81.0147 144.452 80.9246 144.685 80.7442C144.919 80.5532 145.035 80.2933 145.035 79.9644C145.035 79.6886 144.94 79.4605 144.749 79.2801C144.568 79.0998 144.34 78.9512 144.065 78.8345C143.799 78.7178 143.417 78.5852 142.919 78.4367C142.197 78.2139 141.609 77.9911 141.152 77.7683C140.696 77.5455 140.304 77.2166 139.975 76.7817C139.646 76.3467 139.481 75.7791 139.481 75.0789C139.481 74.0392 139.858 73.2276 140.611 72.6441C141.365 72.05 142.346 71.7529 143.555 71.7529C144.786 71.7529 145.778 72.05 146.531 72.6441C147.284 73.2276 147.688 74.0445 147.741 75.0948H144.797C144.775 74.7341 144.643 74.453 144.399 74.2514C144.155 74.0392 143.842 73.9331 143.46 73.9331C143.131 73.9331 142.866 74.0233 142.664 74.2036C142.463 74.3734 142.362 74.6227 142.362 74.9516C142.362 75.3123 142.532 75.5934 142.871 75.795C143.211 75.9966 143.741 76.2141 144.462 76.4475C145.184 76.6915 145.767 76.9249 146.213 77.1477C146.669 77.3705 147.062 77.6941 147.391 78.1184C147.719 78.5428 147.884 79.0892 147.884 79.7575C147.884 80.3941 147.719 80.9723 147.391 81.4921C147.072 82.012 146.605 82.4257 145.99 82.7334C145.375 83.0411 144.648 83.1949 143.81 83.1949Z" fill="#1E293B"/>
<g opacity="0.6">
<path d="M56.9755 153.469C57.2631 154.231 58.2538 154.76 59.3815 154.753L151.293 154.206C152.333 154.199 153.164 153.6 153.142 152.874C153.12 152.168 152.296 151.603 151.286 151.6L59.3718 151.307C57.7493 151.301 56.5617 152.373 56.9755 153.469Z" fill="white"/>
</g>
<g opacity="0.6">
<path d="M56.9755 168.344C57.2631 169.106 58.2538 169.635 59.3815 169.628L151.293 169.081C152.333 169.074 153.164 168.475 153.142 167.749C153.12 167.043 152.296 166.478 151.286 166.475L59.3718 166.182C57.7493 166.176 56.5617 167.248 56.9755 168.344Z" fill="white"/>
</g>
<g opacity="0.6">
<path d="M56.9338 183.218C57.0765 183.98 57.5684 184.509 58.1283 184.502L103.762 183.955C104.278 183.948 104.691 183.349 104.68 182.623C104.669 181.917 104.26 181.352 103.758 181.349L58.1234 181.056C57.3179 181.051 56.7283 182.122 56.9338 183.218Z" fill="white"/>
</g>
<g opacity="0.6">
<path d="M66.7579 94.1139C67.0035 94.8758 67.8499 95.4043 68.8133 95.3976L147.334 94.8501C148.222 94.844 148.933 94.2449 148.913 93.5186C148.894 92.8125 148.191 92.2473 147.328 92.2441L68.805 91.9512C67.4189 91.9461 66.4043 93.0179 66.7579 94.1139Z" fill="white"/>
</g>
<g opacity="0.6">
<path d="M66.7217 108.988C66.8419 109.75 67.2561 110.278 67.7276 110.272L106.155 109.724C106.59 109.718 106.938 109.119 106.928 108.393C106.919 107.687 106.575 107.121 106.152 107.118L67.7235 106.825C67.0452 106.82 66.5487 107.892 66.7217 108.988Z" fill="white"/>
</g>
<g opacity="0.6">
<path d="M66.7579 123.863C67.0035 124.625 67.8499 125.153 68.8133 125.147L147.334 124.599C148.222 124.593 148.933 123.994 148.913 123.268C148.894 122.562 148.191 121.996 147.328 121.993L68.805 121.7C67.4189 121.695 66.4043 122.767 66.7579 123.863Z" fill="white"/>
</g>
<g opacity="0.6">
<path d="M66.7234 138.738C66.8498 139.5 67.285 140.028 67.7805 140.022L108.161 139.474C108.618 139.468 108.983 138.869 108.973 138.143C108.963 137.437 108.602 136.871 108.158 136.868L67.7762 136.575C67.0634 136.57 66.5416 137.642 66.7234 138.738Z" fill="white"/>
</g>
<path d="M112.1 32.3016C108.584 29.8559 105.527 29.9044 103.376 30.5393C101.413 31.1185 100.14 33.0136 100.327 35.0517L101.255 45.1804L112.298 46.1603C112.298 46.1603 118.994 37.0978 112.1 32.3016ZM107.244 40.4729C105.723 40.4729 104.49 39.2402 104.49 37.7196C104.49 36.1989 105.723 34.9662 107.244 34.9662C108.764 34.9662 109.997 36.1989 109.997 37.7196C109.997 39.2402 108.764 40.4729 107.244 40.4729Z" fill="url(#paint1_linear_4040_11996)"/>
<path d="M102.358 40.9199C102.222 40.9199 102.106 40.8161 102.093 40.6776L101.945 39.0646C101.932 38.918 102.04 38.7885 102.186 38.775C102.336 38.761 102.462 38.8694 102.476 39.0162L102.623 40.6292C102.637 40.7757 102.529 40.9053 102.383 40.9189C102.374 40.9197 102.366 40.9199 102.358 40.9199ZM102.068 37.7589C101.932 37.7589 101.816 37.655 101.803 37.5166L101.691 36.292C101.513 34.3505 102.735 32.5429 104.596 31.9936C105.914 31.6046 107.272 31.5489 108.631 31.8278C108.776 31.8572 108.868 31.9982 108.839 32.1424C108.809 32.2863 108.67 32.3784 108.524 32.3498C107.251 32.0891 105.98 32.1408 104.746 32.5046C103.129 32.9821 102.067 34.5546 102.222 36.2436L102.334 37.4682C102.347 37.6146 102.239 37.7443 102.093 37.7578C102.085 37.7586 102.076 37.7589 102.068 37.7589Z" fill="#BDD0FB"/>
<path d="M86.1841 51.7263V46.6339C86.1841 44.876 87.6411 43.468 89.3979 43.5282L124.508 44.7312C126.066 44.7846 127.328 46.0144 127.421 47.5707L127.715 52.4638L86.1841 51.7263Z" fill="url(#paint2_linear_4040_11996)"/>
<path d="M99.2759 45.447H97.766C97.6189 45.447 97.4995 45.3278 97.4995 45.1806C97.4995 45.0333 97.6188 44.9141 97.766 44.9141H99.2759C99.423 44.9141 99.5424 45.0332 99.5424 45.1806C99.5424 45.3278 99.4231 45.447 99.2759 45.447Z" fill="#BDD0FB"/>
<path d="M88.0843 50.1272C87.9372 50.1272 87.8179 50.0081 87.8179 49.8607V47.8006C87.8179 46.2089 89.1128 44.9141 90.7045 44.9141H96.2556C96.4027 44.9141 96.5221 45.0332 96.5221 45.1806C96.5221 45.3278 96.4028 45.447 96.2556 45.447H90.7045C89.4067 45.447 88.3507 46.5029 88.3507 47.8006V49.8607C88.3508 50.0081 88.2315 50.1272 88.0843 50.1272Z" fill="#BDD0FB"/>
<path d="M71.8783 53.0117C71.963 51.2483 73.4174 49.8621 75.1828 49.862L136.579 49.8604C138.787 49.8603 140.674 51.4489 141.05 53.6243L141.102 53.9245C141.515 56.3071 139.681 58.4863 137.262 58.4863H74.2736C72.8265 58.4863 71.6732 57.2764 71.7427 55.8309L71.8783 53.0117Z" fill="url(#paint3_linear_4040_11996)"/>
<path d="M131.02 201.236C130.543 201.236 130.065 201.011 129.562 200.548C127.724 198.86 127.245 196.272 127.113 193.805C126.27 194.749 125.407 195.668 124.554 196.576L124.061 196.113C125.069 195.039 126.091 193.95 127.077 192.825C126.995 189.44 127.151 186.017 127.541 182.652C127.781 180.587 128.126 178.401 129.021 176.406C129.307 175.77 129.782 174.857 130.598 174.286C131.452 173.689 132.572 173.624 133.322 174.128C134.164 174.694 134.391 175.765 134.488 176.52C135.058 180.954 133.329 185.017 131.778 187.644C130.628 189.592 129.235 191.375 127.761 193.071C127.837 195.599 128.188 198.366 130.02 200.05C130.405 200.403 130.737 200.574 131.05 200.558C131.562 200.54 131.979 200.04 132.318 199.553C133.87 197.331 135.077 194.921 135.921 192.365C136.02 191.595 136.235 190.84 136.563 190.135L137.199 190.357C137.022 191.087 136.817 191.806 136.585 192.515C136.498 193.238 136.525 193.974 136.668 194.688C136.744 195.067 137.063 196.317 137.984 196.493C138.67 196.623 139.388 196.101 140.181 194.894L143.486 189.871L143.057 191.717C142.912 192.341 142.668 193.832 143.535 194.189C144.028 194.391 144.552 194.096 145.16 193.754C145.739 193.427 146.397 193.056 147.113 193.152L147.462 193.199L147.402 193.545C147.37 193.735 147.108 195.405 147.968 195.596C148.359 195.683 148.692 195.408 149.193 194.946C149.571 194.596 149.999 194.2 150.54 194.069L150.699 194.727C150.33 194.817 150.001 195.121 149.652 195.443C149.154 195.904 148.589 196.426 147.821 196.257C146.826 196.037 146.577 194.922 146.681 193.83C146.297 193.89 145.903 194.112 145.492 194.344C144.827 194.718 144.073 195.142 143.278 194.815C142.629 194.549 142.274 193.911 142.238 193L140.747 195.267C140.134 196.198 139.168 197.406 137.857 197.158C136.955 196.986 136.263 196.113 136.004 194.822C135.971 194.658 135.944 194.492 135.922 194.326C135.124 196.3 134.104 198.178 132.874 199.941C132.464 200.528 131.889 201.206 131.075 201.235C131.056 201.236 131.038 201.236 131.02 201.236ZM132.155 174.462C131.729 174.462 131.299 174.622 130.986 174.841C130.307 175.316 129.892 176.12 129.639 176.684C128.781 178.594 128.447 180.718 128.214 182.73C127.857 185.815 127.697 188.948 127.74 192.056C129.009 190.557 130.198 188.988 131.194 187.299C132.691 184.764 134.362 180.85 133.816 176.607C133.688 175.613 133.411 175.004 132.944 174.69C132.704 174.529 132.431 174.462 132.155 174.462Z" fill="#1E293B"/>
<path d="M114.193 179.681C114.193 179.681 112.719 175.801 110.997 176.156C109.275 176.511 107.392 177.834 107.392 177.834L104.625 181.575C104.625 181.575 112.391 184.634 115.122 182.881C115.122 182.881 123.053 184.252 133.069 182.608C131.619 179.547 130.755 176.482 130.248 174.104C125.175 176.975 119.711 179.12 114.193 179.681Z" fill="url(#paint4_linear_4040_11996)"/>
<path d="M156.207 151.534C156.207 151.534 144.851 165.837 130.248 174.103C130.755 176.482 131.619 179.547 133.069 182.608C140.645 181.365 149.412 178.398 156.846 171.806L156.207 151.534Z" fill="#1E293B"/>
<path d="M71.0957 153.426L71.8008 172.361C73.8032 173.05 75.7097 173.586 77.5251 173.986C78.6607 170.33 81.1611 165.843 83.2086 162.507C75.6859 159.848 71.0957 153.426 71.0957 153.426Z" fill="#1E293B"/>
<path d="M108.654 153.104C98.3344 164.245 89.9821 164.901 83.2089 162.506C81.1614 165.843 78.661 170.33 77.5254 173.986C105.083 180.061 111.572 154.727 111.572 154.727L108.654 153.104Z" fill="url(#paint5_linear_4040_11996)"/>
<path d="M110.746 151.92C110.746 151.92 111.935 150.644 114.135 151.045C116.335 151.446 118.293 152.21 119.664 151.045C121.035 149.879 121.516 151.444 121.516 151.444L117.412 154.564L110.746 151.92Z" fill="url(#paint6_linear_4040_11996)"/>
<path d="M108.292 154.102C108.292 154.102 109.106 150.696 111.561 151.163C114.015 151.63 119.587 154.66 121.023 154.102C122.459 153.544 124.296 152.208 125.238 152.68L123.578 154.743C123.578 154.743 127.845 152.282 128.579 153.794L121.48 157.789C121.48 157.789 111.095 156.749 108.292 154.102Z" fill="url(#paint7_linear_4040_11996)"/>
<path d="M35.3731 215.831C35.3731 215.831 31.8522 165.563 57.5203 149.932C57.5203 149.932 64.6964 145.194 73.6385 154.369C82.5805 163.544 79.7008 173.076 72.1967 182.009C64.6926 190.942 57.0493 206.899 58.8683 215.831H35.3731Z" fill="#1E293B"/>
<path d="M70.457 136.239C70.4502 136.839 61.9028 148.979 61.9028 148.979C61.9028 148.979 63.437 152.001 70.7613 154.454L77.0835 141.455L70.457 136.239Z" fill="url(#paint8_linear_4040_11996)"/>
<path d="M67.0952 177.922C67.0952 177.922 83.3119 191.503 100.823 185.577C101.909 185.209 103.097 185.289 104.111 185.825L109.145 188.483C111.258 189.599 113.875 188.867 115.101 186.816C115.8 185.646 116.397 184.309 116.516 183.029L106.665 179.041L107.392 177.833C107.392 177.833 102.582 177.426 101.323 180.873C101.323 180.873 92.1622 184.683 76.7131 167.69C76.7132 167.691 69.7025 173.652 67.0952 177.922Z" fill="url(#paint9_linear_4040_11996)"/>
<path d="M66.2226 177.863C66.1534 177.863 66.0836 177.843 66.0219 177.801C59.1739 173.174 55.9524 165.706 55.9206 165.631C55.8433 165.448 55.9286 165.238 56.1108 165.16C56.2933 165.083 56.5039 165.168 56.5812 165.351C56.6123 165.424 59.7567 172.702 66.4238 177.206C66.588 177.317 66.6312 177.54 66.5202 177.705C66.4507 177.807 66.3377 177.863 66.2226 177.863Z" fill="#324057"/>
<path d="M76.3932 167.542C76.2755 167.542 76.1601 167.484 76.0914 167.378C76.0709 167.346 73.9834 164.096 70.0088 156.979C68.7984 154.812 67.2099 153.44 65.287 152.901C62.0982 152.009 59.0222 153.72 58.9914 153.737C58.8192 153.835 58.6003 153.775 58.5025 153.603C58.4046 153.43 58.4649 153.212 58.6368 153.114C58.7725 153.037 61.9938 151.238 65.4739 152.208C67.5905 152.799 69.3271 154.286 70.6354 156.629C74.597 163.723 76.6741 166.957 76.6947 166.989C76.8021 167.155 76.754 167.377 76.5875 167.485C76.5274 167.524 76.4599 167.542 76.3932 167.542Z" fill="#324057"/>
<path d="M77.1862 129.282C77.1862 129.282 80.2275 136.269 80.4317 139.936C80.636 143.603 81.4262 145.982 77.1862 146.72C72.9463 147.459 69.3745 145.347 67.4394 141.694C67.4394 141.694 64.4076 136.066 65.0877 133.761C65.7678 131.456 77.1862 129.282 77.1862 129.282Z" fill="url(#paint10_linear_4040_11996)"/>
<path d="M68.8883 139.068L69.1296 138.962C69.4369 138.826 69.5683 138.46 69.414 138.162C68.8161 137.007 67.6506 134.36 69.1563 133.742C71.0968 132.946 78.7835 131.379 80.4419 128.651C82.0358 126.03 80.6236 122.646 78.5011 121.684C78.3591 121.619 78.1916 121.671 78.1188 121.808L77.9419 122.143C77.8208 122.372 77.4825 122.337 77.4104 122.089C77.3412 121.85 77.0234 121.803 76.8916 122.014C76.3818 122.83 75.0055 124.153 71.3251 124.832C66.0943 125.798 62.6361 127.915 62.55 131.529C62.5446 131.759 62.3003 131.886 62.1041 131.767C61.7179 131.531 61.0998 131.421 60.2738 132.115C58.8373 133.323 59.4252 136.457 62.5743 139.034C62.7239 139.157 62.7226 139.39 62.5606 139.496C61.9897 139.867 61.1387 140.751 63.3438 141.93C65.6247 143.15 67.328 143.05 67.9839 142.941C68.1471 142.914 68.2522 142.756 68.2166 142.595L67.5166 139.418C67.477 139.238 67.6138 139.068 67.798 139.068L68.8883 139.068Z" fill="#040504"/>
<path d="M69.02 139.739C69.02 139.739 67.8597 135.276 65.8588 136.527C63.8579 137.778 66.8971 141.527 68.5058 141.694L69.02 139.739Z" fill="url(#paint11_linear_4040_11996)"/>
<path d="M104.111 185.825C104.111 185.825 108.232 189.856 109.027 189.269C109.31 189.06 110.024 188.302 110.717 187.457C111.205 186.861 111.256 186.019 110.837 185.373L109.865 183.873C108.939 182.444 106.956 182.144 105.671 183.262C105.023 183.826 104.435 184.643 104.111 185.825Z" fill="url(#paint12_linear_4040_11996)"/>
<path d="M169.527 215.83C169.527 215.83 169.021 196.979 158.492 178.277C155.198 172.428 154.027 165.619 155.054 158.985L156.207 151.534C156.207 151.534 170.658 146.643 186.677 151.328C186.677 151.328 208.888 168.941 194.044 215.83H169.527Z" fill="#1E293B"/>
<path d="M158.667 142.024L162.414 151.026C162.651 151.595 163.162 152 163.769 152.104C165.93 152.475 171.155 153.054 174.587 150.797C174.996 150.528 175.1 149.972 174.82 149.571L167.897 139.632L158.667 142.024Z" fill="url(#paint13_linear_4040_11996)"/>
<path d="M167.909 184.331C167.393 184.467 167.137 185.047 167.383 185.521L178.224 206.307C178.407 206.658 178.812 206.832 179.193 206.722L214.653 196.484C215.095 196.356 215.349 195.895 215.222 195.453L209.113 174.307C208.988 173.873 208.539 173.619 208.102 173.734L167.909 184.331Z" fill="#364864"/>
<path d="M170.196 181.888C169.689 182.009 169.401 182.547 169.581 183.036L178.259 206.609C178.416 207.037 178.879 207.271 179.317 207.145L214.671 196.937C215.111 196.81 215.378 196.364 215.281 195.916L210.381 173.229C210.278 172.752 209.803 172.453 209.328 172.566L170.196 181.888Z" fill="white"/>
<path d="M173.275 179.509C172.655 179.603 172.247 180.205 172.388 180.816L178.282 206.263C178.421 206.864 179.037 207.226 179.63 207.055L214.448 197.002C215.007 196.84 215.337 196.263 215.191 195.699L209.837 174.927C209.699 174.392 209.179 174.048 208.633 174.131L173.275 179.509Z" fill="#324057"/>
<path d="M201.461 189.214C204.163 168.8 188.432 153.104 188.432 153.104L179.072 164.015C186.178 172.872 189.556 180.989 191.099 187.364C193.145 186.768 198.072 185.826 201.461 189.214Z" fill="#1E293B"/>
<path d="M191.099 187.602C190.991 187.602 190.893 187.529 190.866 187.419C188.952 179.512 184.921 171.688 178.885 164.164C178.802 164.061 178.819 163.911 178.922 163.828C179.025 163.745 179.176 163.762 179.258 163.865C185.339 171.444 189.401 179.331 191.331 187.307C191.362 187.435 191.284 187.565 191.155 187.596C191.136 187.6 191.117 187.602 191.099 187.602Z" fill="#324057"/>
<path d="M191.099 187.364C192.533 193.289 192.382 197.709 192.164 199.82C192.082 200.615 191.442 201.237 190.644 201.293C189.738 201.356 188.504 201.439 187.401 201.503C186.189 201.573 184.845 200.807 183.945 200.167C183.486 199.84 182.892 200.349 183.148 200.85C183.819 202.164 185.523 203.333 186.698 204.021C187.125 204.271 187.045 204.909 186.568 205.044L181.546 206.468C189.798 214.242 195.246 205.544 195.246 205.544C198.889 199.915 200.772 194.411 201.46 189.214C198.072 185.826 193.145 186.768 191.099 187.364Z" fill="url(#paint14_linear_4040_11996)"/>
<path d="M162.542 128.251C162.385 128.399 155.9 141.133 155.9 141.133L163.25 144.681L171.189 133.525C171.189 133.525 165.177 125.771 162.542 128.251Z" fill="url(#paint15_linear_4040_11996)"/>
<path d="M167.849 134.863L164.183 140.974C164.128 141.066 164.062 141.15 163.982 141.224C163.546 141.63 162.053 142.811 160.899 141.203C159.915 139.832 158.992 138.586 158.003 138.072C157.426 137.772 156.715 138.011 156.422 138.592C155.818 139.789 154.648 142.229 153.913 144.543C153.729 145.123 154.028 145.746 154.592 145.974C156.08 146.577 159.022 147.667 161.632 148.028C162.06 148.087 162.485 147.906 162.74 147.556C163.863 146.018 167.028 141.719 168.108 140.643C169.112 139.643 170.964 140.02 171.798 140.26C172.115 140.351 172.452 140.307 172.735 140.137C173.582 139.627 175.059 138.357 173.707 136.207C173.371 135.672 173.543 134.96 174.07 134.613C175.016 133.991 176.042 132.824 175.064 130.934C174.075 129.02 172.308 128.848 171.105 128.995C170.572 129.06 170.032 128.781 169.827 128.285C169.736 128.064 169.557 127.876 169.222 127.809C168.592 127.681 168.178 127.104 168.301 126.472C168.514 125.389 168.354 123.983 166.625 123.032C163.454 121.288 160.676 124.129 159.97 126.527C159.263 128.926 162.809 130.62 165.039 130.903C166.677 131.111 167.576 132.899 167.937 133.834C168.068 134.173 168.036 134.551 167.849 134.863Z" fill="url(#paint16_linear_4040_11996)"/>
<path d="M166.731 142.887C166.731 142.887 168.142 138.761 169.946 138.912C171.751 139.064 173.172 140.862 170.935 142.883C168.153 145.398 166.731 142.887 166.731 142.887Z" fill="url(#paint17_linear_4040_11996)"/>
<path d="M117.193 153.2C126.569 153.2 134.171 145.598 134.171 136.221C134.171 126.845 126.569 119.243 117.193 119.243C107.816 119.243 100.214 126.845 100.214 136.221C100.214 145.598 107.816 153.2 117.193 153.2Z" fill="url(#paint18_linear_4040_11996)"/>
<path d="M117.193 152.635C126.258 152.635 133.607 145.286 133.607 136.221C133.607 127.156 126.258 119.808 117.193 119.808C108.128 119.808 100.779 127.156 100.779 136.221C100.779 145.286 108.128 152.635 117.193 152.635Z" fill="url(#paint19_linear_4040_11996)"/>
<path opacity="0.58" d="M103.904 129.229C103.856 129.228 103.808 129.215 103.763 129.19C103.611 129.106 103.555 128.915 103.639 128.762C106.477 123.615 111.887 120.55 117.756 120.764C118.693 120.799 119.628 120.917 120.535 121.117C120.705 121.155 120.813 121.323 120.775 121.493C120.738 121.663 120.57 121.772 120.4 121.733C119.529 121.541 118.632 121.427 117.733 121.395C112.103 121.189 106.914 124.129 104.191 129.067C104.132 129.174 104.019 129.234 103.904 129.229Z" fill="white"/>
<path opacity="0.78" d="M127.358 146.415C132.784 140.99 132.784 132.194 127.358 126.769C121.933 121.344 113.137 121.344 107.712 126.769C102.287 132.194 102.287 140.99 107.712 146.415C113.137 151.84 121.933 151.84 127.358 146.415Z" fill="white"/>
<path d="M115.798 146.863L115.853 145.352C114.281 145.232 112.737 144.803 111.649 144.279C111.26 144.092 111.075 143.641 111.204 143.229L111.639 141.836C111.798 141.325 112.369 141.079 112.855 141.304C113.936 141.804 115.277 142.217 116.738 142.27C118.255 142.325 119.404 141.852 119.443 140.799C119.477 139.848 118.624 139.25 116.537 138.608C113.56 137.676 111.448 136.286 111.545 133.639C111.632 131.248 113.446 129.487 116.497 129.109L116.552 127.599C116.57 127.113 116.979 126.733 117.465 126.751L118.352 126.783C118.838 126.801 119.218 127.209 119.2 127.695L119.15 129.051C120.605 129.163 121.657 129.451 122.488 129.777C122.913 129.944 123.132 130.417 122.996 130.854L122.596 132.142C122.442 132.639 121.895 132.894 121.416 132.693C120.652 132.371 119.567 132.026 118.143 131.974C116.344 131.909 115.803 132.635 115.778 133.304C115.748 134.126 116.807 134.731 119.12 135.536C122.425 136.661 123.762 138.099 123.671 140.593C123.588 142.88 121.817 144.875 118.508 145.269L118.446 146.959C118.428 147.445 118.02 147.825 117.534 147.807L116.646 147.775C116.16 147.757 115.781 147.349 115.798 146.863Z" fill="url(#paint20_linear_4040_11996)"/>
<defs>
<linearGradient id="paint0_linear_4040_11996" x1="109.708" y1="8.03626" x2="108.651" y2="187.323" gradientUnits="userSpaceOnUse">
<stop stop-color="#1E293B"/>
<stop offset="1" stop-color="#324057"/>
</linearGradient>
<linearGradient id="paint1_linear_4040_11996" x1="122.958" y1="17.7745" x2="78.1929" y2="76.6615" gradientUnits="userSpaceOnUse">
<stop stop-color="#1E293B"/>
<stop offset="1" stop-color="#324057"/>
</linearGradient>
<linearGradient id="paint2_linear_4040_11996" x1="127.868" y1="21.5074" x2="83.1029" y2="80.3944" gradientUnits="userSpaceOnUse">
<stop stop-color="#1E293B"/>
<stop offset="1" stop-color="#324057"/>
</linearGradient>
<linearGradient id="paint3_linear_4040_11996" x1="110.68" y1="18.1699" x2="105.218" y2="65.0522" gradientUnits="userSpaceOnUse">
<stop stop-color="#324057"/>
<stop offset="1" stop-color="#334563"/>
</linearGradient>
<linearGradient id="paint4_linear_4040_11996" x1="134.905" y1="176.329" x2="99.9864" y2="184.607" gradientUnits="userSpaceOnUse">
<stop stop-color="#FEBBBA"/>
<stop offset="1" stop-color="#FF928E"/>
</linearGradient>
<linearGradient id="paint5_linear_4040_11996" x1="116.185" y1="132.254" x2="87.4368" y2="174.548" gradientUnits="userSpaceOnUse">
<stop stop-color="#FEBBBA"/>
<stop offset="1" stop-color="#FF928E"/>
</linearGradient>
<linearGradient id="paint6_linear_4040_11996" x1="121.624" y1="145.945" x2="115.042" y2="152.819" gradientUnits="userSpaceOnUse">
<stop stop-color="#FEBBBA"/>
<stop offset="1" stop-color="#FF928E"/>
</linearGradient>
<linearGradient id="paint7_linear_4040_11996" x1="127.672" y1="140.061" x2="98.9239" y2="182.355" gradientUnits="userSpaceOnUse">
<stop stop-color="#FEBBBA"/>
<stop offset="1" stop-color="#FF928E"/>
</linearGradient>
<linearGradient id="paint8_linear_4040_11996" x1="81.5098" y1="132.175" x2="59.8361" y2="158.364" gradientUnits="userSpaceOnUse">
<stop stop-color="#FEBBBA"/>
<stop offset="1" stop-color="#FF928E"/>
</linearGradient>
<linearGradient id="paint9_linear_4040_11996" x1="93.286" y1="179.399" x2="72.6091" y2="194.602" gradientUnits="userSpaceOnUse">
<stop stop-color="#FEBBBA"/>
<stop offset="1" stop-color="#FF928E"/>
</linearGradient>
<linearGradient id="paint10_linear_4040_11996" x1="76.6392" y1="145.247" x2="65.2003" y2="119.66" gradientUnits="userSpaceOnUse">
<stop stop-color="#FEBBBA"/>
<stop offset="1" stop-color="#FF928E"/>
</linearGradient>
<linearGradient id="paint11_linear_4040_11996" x1="71.0813" y1="147.732" x2="59.6424" y2="122.145" gradientUnits="userSpaceOnUse">
<stop stop-color="#FEBBBA"/>
<stop offset="1" stop-color="#FF928E"/>
</linearGradient>
<linearGradient id="paint12_linear_4040_11996" x1="120.255" y1="161.897" x2="109.117" y2="183.269" gradientUnits="userSpaceOnUse">
<stop stop-color="#FEBBBA"/>
<stop offset="1" stop-color="#FF928E"/>
</linearGradient>
<linearGradient id="paint13_linear_4040_11996" x1="168.268" y1="150.314" x2="163.707" y2="136.63" gradientUnits="userSpaceOnUse">
<stop stop-color="#FEBBBA"/>
<stop offset="1" stop-color="#FF928E"/>
</linearGradient>
<linearGradient id="paint14_linear_4040_11996" x1="195.96" y1="190.171" x2="181.137" y2="218.677" gradientUnits="userSpaceOnUse">
<stop stop-color="#FEBBBA"/>
<stop offset="1" stop-color="#FF928E"/>
</linearGradient>
<linearGradient id="paint15_linear_4040_11996" x1="164.678" y1="130.659" x2="160.124" y2="157.46" gradientUnits="userSpaceOnUse">
<stop stop-color="#FEBBBA"/>
<stop offset="1" stop-color="#FF928E"/>
</linearGradient>
<linearGradient id="paint16_linear_4040_11996" x1="181.99" y1="97.6515" x2="172.847" y2="118.985" gradientUnits="userSpaceOnUse">
<stop stop-color="#E1473D"/>
<stop offset="1" stop-color="#E9605A"/>
</linearGradient>
<linearGradient id="paint17_linear_4040_11996" x1="168.63" y1="159.912" x2="169.44" y2="141.091" gradientUnits="userSpaceOnUse">
<stop stop-color="#FEBBBA"/>
<stop offset="1" stop-color="#FF928E"/>
</linearGradient>
<linearGradient id="paint18_linear_4040_11996" x1="128.102" y1="97.5439" x2="116.512" y2="138.633" gradientUnits="userSpaceOnUse">
<stop stop-color="#E0A737"/>
<stop offset="1" stop-color="#F6BD29"/>
</linearGradient>
<linearGradient id="paint19_linear_4040_11996" x1="127.739" y1="98.8299" x2="116.535" y2="138.553" gradientUnits="userSpaceOnUse">
<stop stop-color="#E0A737"/>
<stop offset="1" stop-color="#F6BD29"/>
</linearGradient>
<linearGradient id="paint20_linear_4040_11996" x1="-32.8296" y1="285.113" x2="-63.0246" y2="314.816" gradientUnits="userSpaceOnUse">
<stop stop-color="#FFCE4F"/>
<stop offset="1" stop-color="#FFD33C"/>
</linearGradient>
</defs>
</svg>
